<svg width="40" height="40" viewBox="0 0 40 40" fill="none" xmlns="http://www.w3.org/2000/svg">
<g id=" ">
<path id="Vector" d="M33.5546 33.0797L23.7734 17.7078L33.4249 7.09063C33.6432 6.84457 33.7557 6.52239 33.7381 6.19394C33.7204 5.86549 33.574 5.55724 33.3306 5.33602C33.0871 5.11481 32.7663 4.99845 32.4377 5.01218C32.1091 5.02591 31.7991 5.16862 31.5749 5.40937L22.3812 15.5219L16.0546 5.57969C15.9418 5.40212 15.786 5.25589 15.6016 5.15456C15.4173 5.05323 15.2103 5.00007 14.9999 5H7.49995C7.27582 4.99989 7.05579 5.06004 6.8629 5.17416C6.67 5.28827 6.51133 5.45215 6.40351 5.64863C6.29568 5.84511 6.24267 6.06697 6.25001 6.29097C6.25736 6.51497 6.32479 6.73288 6.44526 6.92188L16.2265 22.2922L6.57495 32.9172C6.46224 33.0383 6.37468 33.1805 6.31735 33.3357C6.26002 33.4908 6.23405 33.6558 6.24096 33.8211C6.24786 33.9864 6.2875 34.1486 6.35758 34.2984C6.42765 34.4483 6.52677 34.5827 6.64918 34.694C6.7716 34.8052 6.91488 34.8911 7.07071 34.9465C7.22655 35.002 7.39184 35.026 7.55702 35.0171C7.72219 35.0082 7.88396 34.9666 8.03295 34.8948C8.18193 34.8229 8.31517 34.7222 8.42495 34.5984L17.6187 24.4859L23.9453 34.4281C24.059 34.6042 24.2152 34.7489 24.3995 34.8489C24.5838 34.9488 24.7903 35.0008 24.9999 35H32.4999C32.7238 34.9999 32.9436 34.9397 33.1362 34.8257C33.3289 34.7117 33.4874 34.548 33.5952 34.3517C33.703 34.1555 33.7561 33.9339 33.7489 33.7102C33.7418 33.4864 33.6747 33.2687 33.5546 33.0797ZM25.6859 32.5L9.77651 7.5H14.3078L30.2234 32.5H25.6859Z" fill="black"/>
</g>
</svg>
