<?xml version="1.0" encoding="UTF-8"?>
<svg xmlns="http://www.w3.org/2000/svg" viewBox="0 0 627.91 380.43">
  <defs>
    <style>
      .cls-1 {
        stroke: #003c2d;
        stroke-width: 2px;
      }

      .cls-1, .cls-2, .cls-3, .cls-4, .cls-5, .cls-6, .cls-7, .cls-8, .cls-9 {
        fill: none;
      }

      .cls-1, .cls-4, .cls-5, .cls-6, .cls-7, .cls-8, .cls-9, .cls-10, .cls-11 {
        stroke-miterlimit: 10;
      }

      .cls-12 {
        mix-blend-mode: screen;
      }

      .cls-12, .cls-13, .cls-14 {
        opacity: .55;
      }

      .cls-12, .cls-15 {
        fill: #ffdacf;
      }

      .cls-16 {
        fill: #1d9569;
      }

      .cls-2 {
        stroke: #db8f77;
        stroke-width: .5px;
      }

      .cls-2, .cls-3 {
        stroke-linejoin: round;
      }

      .cls-17 {
        fill: #faedb2;
      }

      .cls-18 {
        fill: #395077;
      }

      .cls-3 {
        stroke: #19202d;
      }

      .cls-3, .cls-9 {
        stroke-width: .75px;
      }

      .cls-19 {
        fill: #c7dbd1;
      }

      .cls-20, .cls-21, .cls-22, .cls-23 {
        fill: #98b0a8;
      }

      .cls-24 {
        fill: #344b48;
      }

      .cls-25 {
        fill: #db8f77;
      }

      .cls-4, .cls-10, .cls-11 {
        stroke: #fff;
      }

      .cls-5 {
        stroke: #a6cc5a;
      }

      .cls-26 {
        fill: #19202d;
      }

      .cls-27 {
        fill: #7eb6ad;
      }

      .cls-28 {
        fill: #dde8e6;
      }

      .cls-29 {
        fill: #a6cc5a;
      }

      .cls-30 {
        isolation: isolate;
      }

      .cls-31 {
        fill: #2c79e8;
      }

      .cls-32 {
        fill: #003c2d;
      }

      .cls-21 {
        letter-spacing: .12em;
      }

      .cls-21, .cls-22, .cls-23 {
        font-family: BebasNeueBold, BebasNeueBold;
        font-size: 11.59px;
      }

      .cls-22, .cls-33 {
        letter-spacing: .12em;
      }

      .cls-34 {
        fill: #3f9e97;
      }

      .cls-35 {
        fill: #402e32;
      }

      .cls-6 {
        stroke: #ffdede;
      }

      .cls-36 {
        fill: #96b1ac;
      }

      .cls-7 {
        stroke: #edd7c8;
      }

      .cls-37 {
        fill: #030334;
      }

      .cls-38 {
        fill: #c7a48b;
      }

      .cls-39 {
        fill: #edd7c8;
      }

      .cls-40, .cls-14 {
        fill: #4b635f;
      }

      .cls-41 {
        fill: #cdbfa6;
      }

      .cls-42 {
        fill: #fff;
      }

      .cls-8 {
        stroke: #b5a092;
        stroke-width: 3px;
      }

      .cls-43 {
        fill: #0c3656;
      }

      .cls-9 {
        stroke: #f7a794;
      }

      .cls-44 {
        fill: #8a9c64;
      }

      .cls-10 {
        fill: #c9f1e1;
      }

      .cls-45 {
        fill: #f2eab2;
      }

      .cls-46 {
        fill: #55635e;
      }

      .cls-47 {
        fill: #115237;
      }

      .cls-48 {
        fill: #2a726d;
      }

      .cls-49 {
        fill: #ffeacf;
      }

      .cls-11 {
        fill: #b9cdd0;
      }

      .cls-50 {
        fill: #e6dba5;
      }

      .cls-51 {
        fill: #869e9a;
      }

      .cls-52 {
        letter-spacing: .04em;
      }
    </style>
  </defs>
  <g class="cls-30">
    <g id="_圖層_2" data-name="圖層 2">
      <g id="OBJECTS">
        <g>
          <g>
            <path class="cls-7" d="M93.32,263.53c-1.21-21.26-14.93-50.62-28.65-65.86-12.5-13.9-19.89-26.74-18.63-38.53,1.31-12.38,13.67-21.87,25.84-15.67,19.75,10.07,25.41,28.38,30.13,46.39,4.72,18.01,3.56,52.52,5.87,74.03"/>
            <path class="cls-7" d="M52.17,146.51c-.57,14.82,41.12,50.43,43.96,113.21"/>
            <path class="cls-7" d="M49.25,150.05c-1.31,26.66,40.05,58.73,45.32,115.37"/>
            <path class="cls-7" d="M54.61,144.29c27.41,15.98,43.01,77.57,43.8,116.59"/>
            <path class="cls-7" d="M58.07,142.74c13.43,2.99,49.81,24.2,45.23,119.57"/>
          </g>
          <g>
            <path class="cls-7" d="M113.9,272.76c-3.21-15.45-.71-50.3-3.91-65.75-4.44-21.38-10.6-41.33-10.94-63.16-.1-6.45.23-13.19,3.34-18.85,3.1-5.66,9.74-9.86,15.98-8.21,4.11,1.09,7.25,4.41,9.62,7.95,8.65,12.9,9.63,29.37,9.21,44.89-.7,26.15-4.93,65.93-8.77,91.81"/>
            <path class="cls-7" d="M112.25,116.9c-4.98,5.85-14.74,11.32-3.06,75.68,8.22,45.3,6.56,74.42,6.56,74.42"/>
            <path class="cls-7" d="M115.71,116.43c-3.53,4.49-5.47,17.92.89,56.92,5.07,31.08-.63,68.28.69,94.83"/>
            <path class="cls-7" d="M119.31,117.1s7.99,38.17.61,150.04"/>
            <path class="cls-7" d="M124.37,262.94s17.28-97.57,1.84-140.58"/>
          </g>
          <g>
            <path class="cls-7" d="M418.56,318.36c12.88-14.49,19.75-31.95,26.86-54.53,8.27-26.25,11.16-47.47,27.61-68.77,4.86-6.29,15.31-13.18,23.58-15.63,11.25-3.32,22.61-1.33,29.37,7.02,4.45,5.5,5.93,12.09,6.25,18.04,1.17,21.74-7.6,41.29-20.14,55.71-21.13,24.3-45.64,45.4-73.82,62.93"/>
            <path class="cls-7" d="M516.12,179.44c-16.11,2.1-35.47,11.42-56.28,71.5-18.91,54.57-34.44,63.91-34.44,63.91"/>
            <path class="cls-7" d="M520.68,181.72c-8.02.47-19.24,13.09-40.7,53.75-15.74,29.83-34.68,55.3-53.52,82.17"/>
            <path class="cls-7" d="M522.84,183.23c1.65,7.28-10.54,44.05-92.16,136.27"/>
            <path class="cls-7" d="M434.07,321.69s95.89-64.58,94.75-130.86"/>
          </g>
          <g>
            <path class="cls-7" d="M133.95,261.87c0-17.15-.19-38.15,2.13-55.18,2-14.63,5.48-31.42,16.64-42.18,4.07-3.92,9.58-5.46,14.99-3.7,5.75,1.88,6.98,7.87,7.15,12.7.88,24.38-10.86,65.47-27.01,85.18"/>
            <path class="cls-7" d="M136.37,262.84c2.57-27.99,5.82-82.12,24.45-102.54"/>
            <path class="cls-7" d="M139.69,264.38s9.75-87.34,29.22-103.08"/>
            <path class="cls-7" d="M143.83,261.82s26.36-62.84,28.01-98.27"/>
          </g>
          <g>
            <path class="cls-6" d="M447.28,332.26s19.14-8.92,49.33-40.47c9.7-10.14,19.82-20.63,32.43-27.15,9.71-5.02,31.19-10.6,37.93,1.98,4.35,8.12-.65,20.35-7.94,27.64-24.26,24.26-61.33,40.99-98.18,47.39"/>
            <path class="cls-6" d="M456.34,330.67c21.09-12.04,34.62-26.98,47.19-37.99,20.95-18.36,40.25-35.68,60.19-30.02"/>
            <path class="cls-6" d="M456.17,336.53c17.08-4.44,38.61-15.27,58.82-29.62,24.58-17.45,39.62-37.41,52.66-38.76"/>
            <path class="cls-6" d="M454.29,333.8c17.08-4.44,37.91-19.79,57.61-34.83,20.1-15.34,34.41-37.4,53.54-34.6"/>
            <path class="cls-6" d="M458.66,339.41s89.99-28.28,109.88-67.09"/>
          </g>
          <path class="cls-39" d="M81.37,255.46v15.41c0,61.12,21.52,78.5,21.52,78.5h47.38s21.52-17.39,21.52-78.5v-15.41h-90.42Z"/>
        </g>
        <g>
          <g>
            <polygon class="cls-40" points="189.03 349.02 494.04 349.02 466.95 118.51 161.94 118.51 189.03 349.02"/>
            <polygon class="cls-28" points="439.86 349.38 134.85 349.38 161.93 118.51 466.94 118.51 439.86 349.38"/>
            <polygon class="cls-20" points="463.81 145.18 158.8 145.18 161.93 118.51 466.94 118.51 463.81 145.18"/>
            <text class="cls-22" transform="translate(180.39 172.19) scale(.95 .99) skewX(-7)"><tspan x="0" y="0">MON</tspan></text>
            <text class="cls-22" transform="translate(221.21 172.19) scale(.95 .99) skewX(-7)"><tspan x="0" y="0">TUE</tspan></text>
            <text class="cls-22" transform="translate(257.17 172.19) scale(.95 .99) skewX(-7)"><tspan x="0" y="0">WED</tspan></text>
            <text class="cls-22" transform="translate(296.29 172.19) scale(.95 .99) skewX(-7)"><tspan x="0" y="0">THU</tspan></text>
            <text class="cls-21" transform="translate(337.21 172.19) scale(.95 .99) skewX(-7)"><tspan x="0" y="0">FRI</tspan></text>
            <text class="cls-23" transform="translate(373.76 172.19) scale(.95 .99) skewX(-7)"><tspan class="cls-33" x="0" y="0">S</tspan><tspan class="cls-52" x="7.11" y="0">A</tspan><tspan class="cls-33" x="14.7" y="0">T</tspan></text>
            <text class="cls-22" transform="translate(410.24 172.19) scale(.95 .99) skewX(-7)"><tspan x="0" y="0">SUN</tspan></text>
            <g>
              <path class="cls-10" d="M202.16,206.67h-24.04c-1.19,0-2.03-1.01-1.88-2.25l2.95-25.16c.15-1.24,1.23-2.25,2.41-2.25h24.04c1.19,0,2.03,1.01,1.88,2.25l-2.95,25.16c-.15,1.24-1.23,2.25-2.41,2.25Z"/>
              <path class="cls-10" d="M197.5,246.42h-24.04c-1.19,0-2.03-1.01-1.88-2.25l2.95-25.16c.15-1.24,1.23-2.25,2.41-2.25h24.04c1.19,0,2.03,1.01,1.88,2.25l-2.95,25.16c-.15,1.24-1.23,2.25-2.41,2.25Z"/>
              <path class="cls-4" d="M192.83,286.18h-24.04c-1.19,0-2.03-1.01-1.88-2.25l2.95-25.16c.15-1.24,1.23-2.25,2.41-2.25h24.04c1.19,0,2.03,1.01,1.88,2.25l-2.95,25.16c-.15,1.24-1.23,2.25-2.41,2.25Z"/>
              <path class="cls-10" d="M188.17,325.93h-24.04c-1.19,0-2.03-1.01-1.88-2.25l2.95-25.16c.15-1.24,1.23-2.25,2.41-2.25h24.04c1.19,0,2.03,1.01,1.88,2.25l-2.95,25.16c-.15,1.24-1.23,2.25-2.41,2.25Z"/>
            </g>
            <g>
              <path class="cls-4" d="M240.15,206.67h-24.04c-1.19,0-2.03-1.01-1.88-2.25l2.95-25.16c.15-1.24,1.23-2.25,2.41-2.25h24.04c1.19,0,2.03,1.01,1.88,2.25l-2.95,25.16c-.15,1.24-1.23,2.25-2.41,2.25Z"/>
              <path class="cls-4" d="M235.48,246.42h-24.04c-1.19,0-2.03-1.01-1.88-2.25l2.95-25.16c.15-1.24,1.23-2.25,2.41-2.25h24.04c1.19,0,2.03,1.01,1.88,2.25l-2.95,25.16c-.15,1.24-1.23,2.25-2.41,2.25Z"/>
              <path class="cls-11" d="M230.82,286.18h-24.04c-1.19,0-2.03-1.01-1.88-2.25l2.95-25.16c.15-1.24,1.23-2.25,2.41-2.25h24.04c1.19,0,2.03,1.01,1.88,2.25l-2.95,25.16c-.15,1.24-1.23,2.25-2.41,2.25Z"/>
              <path class="cls-10" d="M226.15,325.93h-24.04c-1.19,0-2.03-1.01-1.88-2.25l2.95-25.16c.15-1.24,1.23-2.25,2.41-2.25h24.04c1.19,0,2.03,1.01,1.88,2.25l-2.95,25.16c-.15,1.24-1.23,2.25-2.41,2.25Z"/>
            </g>
            <g>
              <path class="cls-4" d="M278.13,206.67h-24.04c-1.19,0-2.03-1.01-1.88-2.25l2.95-25.16c.15-1.24,1.23-2.25,2.41-2.25h24.04c1.19,0,2.03,1.01,1.88,2.25l-2.95,25.16c-.15,1.24-1.23,2.25-2.41,2.25Z"/>
              <path class="cls-4" d="M273.47,246.42h-24.04c-1.19,0-2.03-1.01-1.88-2.25l2.95-25.16c.15-1.24,1.23-2.25,2.41-2.25h24.04c1.19,0,2.03,1.01,1.88,2.25l-2.95,25.16c-.15,1.24-1.23,2.25-2.41,2.25Z"/>
              <path class="cls-4" d="M268.8,286.18h-24.04c-1.19,0-2.03-1.01-1.88-2.25l2.95-25.16c.15-1.24,1.23-2.25,2.41-2.25h24.04c1.19,0,2.03,1.01,1.88,2.25l-2.95,25.16c-.15,1.24-1.23,2.25-2.41,2.25Z"/>
              <path class="cls-4" d="M264.14,325.93h-24.04c-1.19,0-2.03-1.01-1.88-2.25l2.95-25.16c.15-1.24,1.23-2.25,2.41-2.25h24.04c1.19,0,2.03,1.01,1.88,2.25l-2.95,25.16c-.15,1.24-1.23,2.25-2.41,2.25Z"/>
            </g>
            <g>
              <path class="cls-4" d="M316.12,206.67h-24.04c-1.19,0-2.03-1.01-1.88-2.25l2.95-25.16c.15-1.24,1.23-2.25,2.41-2.25h24.04c1.19,0,2.03,1.01,1.88,2.25l-2.95,25.16c-.15,1.24-1.23,2.25-2.41,2.25Z"/>
              <path class="cls-10" d="M311.45,246.42h-24.04c-1.19,0-2.03-1.01-1.88-2.25l2.95-25.16c.15-1.24,1.23-2.25,2.41-2.25h24.04c1.19,0,2.03,1.01,1.88,2.25l-2.95,25.16c-.15,1.24-1.23,2.25-2.41,2.25Z"/>
              <path class="cls-4" d="M306.79,286.18h-24.04c-1.19,0-2.03-1.01-1.88-2.25l2.95-25.16c.15-1.24,1.23-2.25,2.41-2.25h24.04c1.19,0,2.03,1.01,1.88,2.25l-2.95,25.16c-.15,1.24-1.23,2.25-2.41,2.25Z"/>
              <path class="cls-10" d="M302.13,325.93h-24.04c-1.19,0-2.03-1.01-1.88-2.25l2.95-25.16c.15-1.24,1.23-2.25,2.41-2.25h24.04c1.19,0,2.03,1.01,1.88,2.25l-2.95,25.16c-.15,1.24-1.23,2.25-2.41,2.25Z"/>
            </g>
            <g>
              <path class="cls-4" d="M354.1,206.67h-24.04c-1.19,0-2.03-1.01-1.88-2.25l2.95-25.16c.15-1.24,1.23-2.25,2.41-2.25h24.04c1.19,0,2.03,1.01,1.88,2.25l-2.95,25.16c-.15,1.24-1.23,2.25-2.41,2.25Z"/>
              <path class="cls-4" d="M349.44,246.42h-24.04c-1.19,0-2.03-1.01-1.88-2.25l2.95-25.16c.15-1.24,1.23-2.25,2.41-2.25h24.04c1.19,0,2.03,1.01,1.88,2.25l-2.95,25.16c-.15,1.24-1.23,2.25-2.41,2.25Z"/>
              <path class="cls-11" d="M344.78,286.18h-24.04c-1.19,0-2.03-1.01-1.88-2.25l2.95-25.16c.15-1.24,1.23-2.25,2.41-2.25h24.04c1.19,0,2.03,1.01,1.88,2.25l-2.95,25.16c-.15,1.24-1.23,2.25-2.41,2.25Z"/>
              <path class="cls-10" d="M340.11,325.93h-24.04c-1.19,0-2.03-1.01-1.88-2.25l2.95-25.16c.15-1.24,1.23-2.25,2.41-2.25h24.04c1.19,0,2.03,1.01,1.88,2.25l-2.95,25.16c-.15,1.24-1.23,2.25-2.41,2.25Z"/>
            </g>
            <g>
              <path class="cls-4" d="M392.09,206.67h-24.04c-1.19,0-2.03-1.01-1.88-2.25l2.95-25.16c.15-1.24,1.23-2.25,2.41-2.25h24.04c1.19,0,2.03,1.01,1.88,2.25l-2.95,25.16c-.15,1.24-1.23,2.25-2.41,2.25Z"/>
              <path class="cls-4" d="M387.42,246.42h-24.04c-1.19,0-2.03-1.01-1.88-2.25l2.95-25.16c.15-1.24,1.23-2.25,2.41-2.25h24.04c1.19,0,2.03,1.01,1.88,2.25l-2.95,25.16c-.15,1.24-1.23,2.25-2.41,2.25Z"/>
              <path class="cls-10" d="M382.76,286.18h-24.04c-1.19,0-2.03-1.01-1.88-2.25l2.95-25.16c.15-1.24,1.23-2.25,2.41-2.25h24.04c1.19,0,2.03,1.01,1.88,2.25l-2.95,25.16c-.15,1.24-1.23,2.25-2.41,2.25Z"/>
              <path class="cls-11" d="M378.1,325.93h-24.04c-1.19,0-2.03-1.01-1.88-2.25l2.95-25.16c.15-1.24,1.23-2.25,2.41-2.25h24.04c1.19,0,2.03,1.01,1.88,2.25l-2.95,25.16c-.15,1.24-1.23,2.25-2.41,2.25Z"/>
            </g>
            <g>
              <path class="cls-10" d="M430.07,206.67h-24.04c-1.19,0-2.03-1.01-1.88-2.25l2.95-25.16c.15-1.24,1.23-2.25,2.41-2.25h24.04c1.19,0,2.03,1.01,1.88,2.25l-2.95,25.16c-.15,1.24-1.23,2.25-2.41,2.25Z"/>
              <path class="cls-4" d="M425.41,246.42h-24.04c-1.19,0-2.03-1.01-1.88-2.25l2.95-25.16c.15-1.24,1.23-2.25,2.41-2.25h24.04c1.19,0,2.03,1.01,1.88,2.25l-2.95,25.16c-.15,1.24-1.23,2.25-2.41,2.25Z"/>
              <path class="cls-4" d="M420.75,286.18h-24.04c-1.19,0-2.03-1.01-1.88-2.25l2.95-25.16c.15-1.24,1.23-2.25,2.41-2.25h24.04c1.19,0,2.03,1.01,1.88,2.25l-2.95,25.16c-.15,1.24-1.23,2.25-2.41,2.25Z"/>
              <path class="cls-4" d="M416.08,325.93h-24.04c-1.19,0-2.03-1.01-1.88-2.25l2.95-25.16c.15-1.24,1.23-2.25,2.41-2.25h24.04c1.19,0,2.03,1.01,1.88,2.25l-2.95,25.16c-.15,1.24-1.23,2.25-2.41,2.25Z"/>
            </g>
            <g>
              <g>
                <path class="cls-31" d="M194.95,131.14c-.21,2.08-1.74,3.77-3.43,3.77s-2.89-1.69-2.68-3.77,1.74-3.77,3.43-3.77,2.89,1.69,2.68,3.77Z"/>
                <path class="cls-32" d="M194.95,131.14c.04-.39.01-.77-.04-1.12-.62-.03-1.18-.35-1.69-.99-1.4-1.76-1.97-5.17-1.49-8.88.79-6.01,4.1-10.51,6.52-10.51.66,0,1.26.34,1.79,1,1.25,1.57,1.84,4.56,1.57,7.87h4c.29-4.41-.62-8.31-2.55-10.73-1.31-1.64-2.97-2.51-4.82-2.51-4.83,0-9.44,6.26-10.48,14.25-.66,5.01.25,9.63,2.42,12.36.92,1.15,2.01,1.91,3.22,2.27.81-.69,1.41-1.78,1.53-3.01Z"/>
              </g>
              <g>
                <path class="cls-16" d="M233.88,131.14c-.21,2.08-1.74,3.77-3.43,3.77s-2.89-1.69-2.68-3.77c.21-2.08,1.74-3.77,3.43-3.77s2.89,1.69,2.68,3.77Z"/>
                <path class="cls-32" d="M233.88,131.14c.04-.39.01-.77-.04-1.12-.62-.03-1.18-.35-1.69-.99-1.4-1.76-1.97-5.17-1.49-8.88.79-6.01,4.1-10.51,6.52-10.51.66,0,1.26.34,1.79,1,1.25,1.57,1.84,4.56,1.57,7.87h4c.29-4.41-.62-8.31-2.55-10.73-1.31-1.64-2.97-2.51-4.82-2.51-4.83,0-9.44,6.26-10.48,14.25-.66,5.01.25,9.63,2.42,12.36.92,1.15,2.01,1.91,3.22,2.27.81-.69,1.41-1.78,1.53-3.01Z"/>
              </g>
              <g>
                <path class="cls-16" d="M272.82,131.14c-.21,2.08-1.74,3.77-3.43,3.77s-2.89-1.69-2.68-3.77c.21-2.08,1.74-3.77,3.43-3.77s2.89,1.69,2.68,3.77Z"/>
                <path class="cls-32" d="M272.82,131.14c.04-.39.01-.77-.04-1.12-.62-.03-1.18-.35-1.69-.99-1.4-1.76-1.97-5.17-1.49-8.88.79-6.01,4.1-10.51,6.52-10.51.66,0,1.26.34,1.79,1,1.25,1.57,1.84,4.56,1.57,7.87h4c.29-4.41-.62-8.31-2.55-10.73-1.31-1.64-2.97-2.51-4.82-2.51-4.83,0-9.44,6.26-10.48,14.25-.66,5.01.25,9.63,2.42,12.36.92,1.15,2.01,1.91,3.22,2.27.81-.69,1.41-1.78,1.53-3.01Z"/>
              </g>
              <g>
                <path class="cls-16" d="M311.76,131.14c-.21,2.08-1.74,3.77-3.43,3.77s-2.89-1.69-2.68-3.77c.21-2.08,1.74-3.77,3.43-3.77s2.89,1.69,2.68,3.77Z"/>
                <path class="cls-32" d="M311.76,131.14c.04-.39.01-.77-.04-1.12-.62-.03-1.18-.35-1.69-.99-1.4-1.76-1.97-5.17-1.49-8.88.79-6.01,4.1-10.51,6.52-10.51.66,0,1.26.34,1.79,1,1.25,1.57,1.84,4.56,1.57,7.87h4c.29-4.41-.62-8.31-2.55-10.73-1.31-1.64-2.97-2.51-4.82-2.51-4.83,0-9.44,6.26-10.48,14.25-.66,5.01.25,9.63,2.42,12.36.92,1.15,2.01,1.91,3.22,2.27.81-.69,1.41-1.78,1.53-3.01Z"/>
              </g>
              <g>
                <path class="cls-31" d="M350.7,131.14c-.21,2.08-1.74,3.77-3.43,3.77s-2.89-1.69-2.68-3.77c.21-2.08,1.74-3.77,3.43-3.77s2.89,1.69,2.68,3.77Z"/>
                <path class="cls-18" d="M350.7,131.14c.04-.39.01-.77-.04-1.12-.62-.03-1.18-.35-1.69-.99-1.4-1.76-1.97-5.17-1.49-8.88.79-6.01,4.1-10.51,6.52-10.51.66,0,1.26.34,1.79,1,1.25,1.57,1.84,4.56,1.57,7.87h4c.29-4.41-.62-8.31-2.55-10.73-1.31-1.64-2.97-2.51-4.82-2.51-4.83,0-9.44,6.26-10.48,14.25-.66,5.01.25,9.63,2.42,12.36.92,1.15,2.01,1.91,3.22,2.27.81-.69,1.41-1.78,1.53-3.01Z"/>
              </g>
              <g>
                <path class="cls-16" d="M389.64,131.14c-.21,2.08-1.74,3.77-3.43,3.77s-2.89-1.69-2.68-3.77,1.74-3.77,3.43-3.77,2.89,1.69,2.68,3.77Z"/>
                <path class="cls-32" d="M389.64,131.14c.04-.39.01-.77-.04-1.12-.62-.03-1.18-.35-1.69-.99-1.4-1.76-1.97-5.17-1.49-8.88.79-6.01,4.1-10.51,6.52-10.51.66,0,1.26.34,1.79,1,1.25,1.57,1.84,4.56,1.57,7.87h4c.29-4.41-.62-8.31-2.55-10.73-1.31-1.64-2.97-2.51-4.82-2.51-4.83,0-9.44,6.26-10.48,14.25-.66,5.01.25,9.63,2.42,12.36.92,1.15,2.01,1.91,3.22,2.27.81-.69,1.41-1.78,1.53-3.01Z"/>
              </g>
              <g>
                <path class="cls-16" d="M428.58,131.14c-.21,2.08-1.74,3.77-3.43,3.77s-2.89-1.69-2.68-3.77c.21-2.08,1.74-3.77,3.43-3.77s2.89,1.69,2.68,3.77Z"/>
                <path class="cls-32" d="M428.58,131.14c.04-.39.01-.77-.04-1.12-.62-.03-1.18-.35-1.69-.99-1.4-1.76-1.97-5.17-1.49-8.88.79-6.01,4.1-10.51,6.52-10.51.66,0,1.26.34,1.79,1,1.25,1.57,1.84,4.56,1.57,7.87h4c.29-4.41-.62-8.31-2.55-10.73-1.31-1.64-2.97-2.51-4.82-2.51-4.83,0-9.44,6.26-10.48,14.25-.66,5.01.25,9.63,2.42,12.36.92,1.15,2.01,1.91,3.22,2.27.81-.69,1.41-1.78,1.53-3.01Z"/>
              </g>
            </g>
          </g>
          <path class="cls-27" d="M292.64,231.69c1.05,1.65,2.09,3.29,3.14,4.94.55.87,1.07,1.78,1.71,2.58.37.46.89.83,1.46,1,.4.12.8.11,1.2.02.43-.1.78-.33,1.11-.61s.61-.67.89-1.02c.31-.37.61-.73.92-1.1.62-.75,1.23-1.52,1.84-2.28,1.22-1.52,2.45-3.05,3.67-4.57.77-.95,1.54-1.9,2.27-2.88.32-.43.67-.85.96-1.3.14-.23.28-.46.42-.68.13-.21.24-.42.3-.67.03-.13.07-.26.1-.39.12-.48-.05-.97-.43-1.27s-.9-.32-1.34-.09c-.11.06-.22.12-.34.17-.23.12-.42.29-.6.46-.21.2-.42.4-.62.61-.39.41-.74.87-1.11,1.3-.75.88-1.45,1.79-2.17,2.7-1.43,1.8-2.85,3.6-4.28,5.4-.88,1.11-1.73,2.23-2.59,3.34l.25-.32c-.12.16-.25.31-.4.43l.32-.24c-.07.05-.13.09-.21.12l.37-.16c-.07.03-.14.05-.22.06l.41-.06c-.07,0-.14,0-.21,0l.41.06c-.08-.01-.16-.04-.24-.07l.37.16c-.11-.05-.21-.11-.3-.19l.31.24c-.19-.15-.34-.33-.49-.52l.24.31c-.32-.42-.6-.86-.9-1.29s-.62-.89-.93-1.33c-.62-.9-1.25-1.79-1.87-2.69-.36-.51-.71-1.03-1.07-1.54-.2-.29-.45-.52-.81-.62-.32-.09-.75-.05-1.04.14s-.54.46-.62.81-.06.73.14,1.04h0Z"/>
          <path class="cls-27" d="M172.55,269.67c1.05,1.65,2.09,3.29,3.14,4.94.55.87,1.07,1.78,1.71,2.58.37.46.89.83,1.46,1,.4.12.8.11,1.2.02.43-.1.78-.33,1.11-.61s.61-.67.89-1.02l.92-1.1c.62-.75,1.23-1.52,1.84-2.28l3.67-4.57c.77-.95,1.54-1.9,2.27-2.88.32-.43.67-.85.96-1.3.14-.23.28-.46.42-.68.13-.21.24-.42.3-.67l.1-.39c.12-.48-.05-.97-.43-1.27s-.9-.32-1.34-.09l-.34.17c-.23.12-.42.29-.6.46-.21.2-.42.4-.62.61-.39.41-.74.87-1.11,1.3-.75.88-1.45,1.79-2.17,2.7l-4.28,5.4c-.88,1.11-1.73,2.23-2.59,3.34l.25-.32c-.12.16-.25.31-.4.43l.32-.24c-.07.05-.13.09-.21.12l.37-.16c-.07.03-.14.05-.22.06l.41-.06c-.07,0-.14,0-.21,0l.41.06c-.08-.01-.16-.04-.24-.07l.37.16c-.11-.05-.21-.11-.3-.19l.31.24c-.19-.15-.34-.33-.49-.52l.24.31c-.32-.42-.6-.86-.9-1.29s-.62-.89-.93-1.33c-.62-.9-1.25-1.79-1.87-2.69-.36-.51-.71-1.03-1.07-1.54-.2-.29-.45-.52-.81-.62-.32-.09-.75-.05-1.04.14s-.54.46-.62.81-.06.73.14,1.04h0Z"/>
          <path class="cls-27" d="M381.88,262.72c-.2-.09-.4-.17-.61-.25l.37.22c-.09-.09-.18-.15-.29-.19-.07-.04-.14-.06-.22-.06-.14-.02-.15-.02-.03,0,.18.02,0,0-.04-.02-.09-.02-.18-.05-.27-.07-.18-.04-.37-.08-.56-.11-.46-.08-.93-.13-1.4-.16l.33.04c-.31-.08-.62-.03-.93,0s-.61.08-.92.13c-.42.07-.83.17-1.24.28-.93.26-1.82.65-2.68,1.11-1.62.87-3.12,2.01-4.42,3.3-.66.66-1.26,1.38-1.81,2.13-.44.6-.84,1.24-1.17,1.92s-.64,1.45-.8,2.23c-.09.42-.15.86-.16,1.29s.04.83.11,1.25c.25,1.53,1.35,2.85,2.69,3.57.8.43,1.68.71,2.57.86.64.11,1.29.19,1.94.17s1.31-.12,1.94-.3c1.22-.34,2.34-.98,3.27-1.84s1.61-1.99,2-3.2.43-2.59.18-3.87c-.11-.56-.32-1.07-.54-1.59-.18-.41-.4-.81-.66-1.18-.61-.89-1.33-1.69-2.15-2.39s-1.77-1.41-2.75-1.93-2.04-.99-3.1-1.4c-.86-.33-1.75-.67-2.66-.82-.21-.03-.41-.07-.62-.1-.19-.03-.38-.05-.57-.08-.1-.01-.2-.03-.3-.03l.3.04c-.21-.05-.39-.04-.59-.02-.24.03-.52.04-.73.17l.72-.09h-.03c-.48-.11-1.04.14-1.15.65-.11.47.14,1.04.65,1.15h.03c-.19-.14-.37-.28-.56-.42.18.29.7.66,1.05.74l-.27-.11c.25.14.56.23.82.34l-.29-.12c.45.19.88.41,1.33.58.39.15.78.3,1.16.46l-.33-.14c1.51.64,2.94,1.42,4.31,2.31.39.25.78.52,1.15.81l-.31-.24c.79.61,1.52,1.29,2.13,2.08l-.24-.31c.39.51.73,1.06.98,1.65l-.16-.37c.2.48.35.99.42,1.51l-.06-.41c.07.56.07,1.13,0,1.69l.06-.41c-.07.53-.21,1.04-.42,1.53l.16-.37c-.19.45-.44.88-.74,1.27l.24-.32c-.31.4-.68.77-1.08,1.08l.32-.25c-.43.33-.89.6-1.39.81l.38-.16c-.53.22-1.09.37-1.66.45l.42-.06c-.59.08-1.18.08-1.77,0l.42.06c-.73-.1-1.45-.27-2.13-.55l.38.16c-.4-.17-.79-.39-1.14-.65l.32.25c-.25-.19-.48-.42-.67-.67l.25.32c-.18-.23-.32-.48-.44-.75l.16.37c-.12-.3-.2-.61-.25-.92l.06.41c-.05-.42-.04-.84.01-1.26l-.06.41c.09-.63.28-1.25.52-1.84l-.15.37c.41-.97.97-1.86,1.61-2.69l-.24.31c.7-.9,1.49-1.73,2.36-2.48.25-.22.51-.43.78-.63l-.3.23c1.12-.86,2.33-1.6,3.63-2.15l-.35.15c.35-.14.69-.31,1.03-.46l-.33.14c.78-.33,1.59-.59,2.42-.74l-.33.04c.28-.04.44-.05.69-.19l-.3.12c.5-.16,1.02-.27,1.54-.35l-.25.03c.18-.02.36-.05.53-.05.08,0,.18,0,.26-.03l.21-.09-.15.07s-.24.03-.13.02c.02,0,.04,0,.06,0,.09-.01.19-.02.28-.03.31-.03.62-.2.7-.53.07-.29-.03-.69-.33-.82h0Z"/>
          <path class="cls-27" d="M238.07,187.21c-.2-.09-.4-.17-.61-.25l.37.22c-.09-.09-.18-.15-.29-.19-.07-.04-.14-.06-.22-.06-.14-.02-.15-.02-.03,0,.18.02,0,0-.04-.02-.09-.02-.18-.05-.27-.07-.18-.04-.37-.08-.56-.11-.46-.08-.93-.13-1.4-.16l.33.04c-.31-.08-.62-.03-.93,0s-.61.08-.92.13c-.42.07-.83.17-1.24.28-.93.26-1.82.65-2.68,1.11-1.62.87-3.12,2.01-4.42,3.3-.66.66-1.26,1.38-1.81,2.13-.44.6-.84,1.24-1.17,1.92s-.64,1.45-.8,2.23c-.09.42-.15.86-.16,1.29s.04.83.11,1.25c.25,1.53,1.35,2.85,2.69,3.57.8.43,1.68.71,2.57.86.64.11,1.29.19,1.94.17s1.31-.12,1.94-.3c1.22-.34,2.34-.98,3.27-1.84s1.61-1.99,2-3.2.43-2.59.18-3.87c-.11-.56-.32-1.07-.54-1.59-.18-.41-.4-.81-.66-1.18-.61-.89-1.33-1.69-2.15-2.39s-1.77-1.41-2.75-1.93-2.04-.99-3.1-1.4c-.86-.33-1.75-.67-2.66-.82-.21-.03-.41-.07-.62-.1-.19-.03-.38-.05-.57-.08-.1-.01-.2-.03-.3-.03l.3.04c-.21-.05-.39-.04-.59-.02-.24.03-.52.04-.73.17l.72-.09h-.03c-.48-.11-1.04.14-1.15.65-.11.47.14,1.04.65,1.15h.03c-.19-.14-.37-.28-.56-.42.18.29.7.66,1.05.74l-.27-.11c.25.14.56.23.82.34l-.29-.12c.45.19.88.41,1.33.58.39.15.78.3,1.16.46l-.33-.14c1.51.64,2.94,1.42,4.31,2.31.39.25.78.52,1.15.81l-.31-.24c.79.61,1.52,1.29,2.13,2.08l-.24-.31c.39.51.73,1.06.98,1.65l-.16-.37c.2.48.35.99.42,1.51l-.06-.41c.07.56.07,1.13,0,1.69l.06-.41c-.07.53-.21,1.04-.42,1.53l.16-.37c-.19.45-.44.88-.74,1.27l.24-.32c-.31.4-.68.77-1.08,1.08l.32-.25c-.43.33-.89.6-1.39.81l.38-.16c-.53.22-1.09.37-1.66.45l.42-.06c-.59.08-1.18.08-1.77,0l.42.06c-.73-.1-1.45-.27-2.13-.55l.38.16c-.4-.17-.79-.39-1.14-.65l.32.25c-.25-.19-.48-.42-.67-.67l.25.32c-.18-.23-.32-.48-.44-.75l.16.37c-.12-.3-.2-.61-.25-.92l.06.41c-.05-.42-.04-.84.01-1.26l-.06.41c.09-.63.28-1.25.52-1.84l-.15.37c.41-.97.97-1.86,1.61-2.69l-.24.31c.7-.9,1.49-1.73,2.36-2.48.25-.22.51-.43.78-.63l-.3.23c1.12-.86,2.33-1.6,3.63-2.15l-.35.15c.35-.14.69-.31,1.03-.46l-.33.14c.78-.33,1.59-.59,2.42-.74l-.33.04c.28-.04.44-.05.69-.19l-.3.12c.5-.16,1.02-.27,1.54-.35l-.25.03c.18-.02.36-.05.53-.05.08,0,.18,0,.26-.03l.21-.09-.15.07s-.24.03-.13.02c.02,0,.04,0,.06,0,.09-.01.19-.02.28-.03.31-.03.62-.2.7-.53.07-.29-.03-.69-.33-.82h0Z"/>
          <g>
            <path class="cls-27" d="M251.47,280.85c.43-.41.86-.82,1.29-1.23,1.05-1,2.11-2,3.12-3.04l3.86-3.96,3.63-3.73c.81-.83,1.65-1.65,2.43-2.52.05-.06.1-.12.16-.18.29-.31.47-.72.47-1.15,0-.4-.18-.87-.47-1.15s-.71-.49-1.15-.47-.85.16-1.15.47-.59.6-.88.92l-1.3,1.41-3.44,3.74-3.77,4.1c-.56.61-1.13,1.22-1.67,1.86l-1.35,1.58c-.47.55-.95,1.1-1.42,1.66,0,0-.01.01-.02.02-.21.24-.34.5-.34.83,0,.29.13.63.34.83.48.44,1.18.45,1.66,0h0Z"/>
            <path class="cls-27" d="M251.99,265.33l.85,1.34c.7,1.1,1.38,2.2,2.12,3.27l2.79,4.04,2.65,3.83c.59.85,1.15,1.73,1.78,2.55.13.16.25.33.38.49l-.25-.33h0c.25.36.54.63.97.75.39.11.9.06,1.25-.16s.65-.56.74-.97.09-.9-.16-1.25c-.22-.31-.42-.62-.65-.93l-1.03-1.39-2.71-3.66-2.96-4c-.51-.69-1.02-1.38-1.55-2.04l-1.16-1.45c-.4-.5-.79-1.01-1.21-1.5,0,0-.01-.01-.02-.02-.17-.21-.57-.35-.83-.34s-.5.09-.71.25c-.44.34-.62,1.01-.3,1.51h0Z"/>
          </g>
          <g>
            <path class="cls-27" d="M254.43,229.26l3.44.2c1.14.07,2.29.08,3.44.09l6.87.12,1.91.03c.66.01,1.31.03,1.97,0,.43-.02.84-.17,1.15-.47.28-.28.49-.74.47-1.15-.04-.91-.71-1.58-1.62-1.62-1.14-.05-2.29.01-3.44.03l-3.44.06-3.44.06c-1.14.02-2.29,0-3.44.08l-3.87.23c-.31.02-.6.12-.83.34-.2.2-.36.54-.34.83.03.67.52,1.13,1.17,1.17h0Z"/>
            <path class="cls-27" d="M253.7,237.42l.62.16.31.08c.2.05.38.08.58.11l-.32-.04.79.12c.23.04.47.07.71.08h.4c.54.03,1.09.06,1.63.08l1.63.06c.28.01.55.02.83.03s.54-.02.8-.03l.45-.02c.08,0,.16,0,.24-.01.25-.02.38-.04.59-.13.09-.04.17-.07.25-.11.24-.13.47-.27.7-.41.61-.36.61-1.26,0-1.62-.2-.12-.41-.25-.61-.37-.05-.03-.1-.05-.14-.08-.23-.12-.33-.15-.56-.18-.1-.01-.19-.03-.29-.03-.13,0-.27-.01-.4-.02l-.83-.03c-.27-.01-.54.01-.8.02l-3.26.12c-.41.02-.8.03-1.21.09-.3.05-.61.09-.91.14l.32-.04c-.2.03-.39.06-.58.11l-.31.08-.62.16c-.36.09-.66.47-.65.85s.26.75.65.85h0Z"/>
          </g>
          <g>
            <path class="cls-27" d="M284.64,306.24l3.44.2c1.14.07,2.29.08,3.44.09l6.87.12,1.91.03c.66.01,1.31.03,1.97,0,.43-.02.84-.17,1.15-.47.28-.28.49-.74.47-1.15-.04-.91-.71-1.58-1.62-1.62-1.14-.05-2.29.01-3.44.03l-3.44.06-3.44.06c-1.14.02-2.29,0-3.44.08l-3.87.23c-.31.02-.6.12-.83.34-.2.2-.36.54-.34.83.03.67.52,1.13,1.17,1.17h0Z"/>
            <path class="cls-27" d="M283.9,314.39l.62.16.31.08c.2.05.38.08.58.11l-.32-.04.79.12c.23.04.47.07.71.08h.4c.54.03,1.09.06,1.63.08l1.63.06c.28.01.55.02.83.03s.54-.02.8-.03l.45-.02c.08,0,.16,0,.24-.01.25-.02.38-.04.59-.13.09-.04.17-.07.25-.11.24-.13.47-.27.7-.41.61-.36.61-1.26,0-1.62-.2-.12-.41-.25-.61-.37-.05-.03-.1-.05-.14-.08-.23-.12-.33-.15-.56-.18-.1-.01-.19-.03-.29-.03-.13,0-.27-.01-.4-.02l-.83-.03c-.27-.01-.54.01-.8.02l-3.26.12c-.41.02-.8.03-1.21.09-.3.05-.61.09-.91.14l.32-.04c-.2.03-.39.06-.58.11l-.31.08-.62.16c-.36.09-.66.47-.65.85s.26.75.65.85h0Z"/>
          </g>
          <g>
            <path class="cls-27" d="M335.06,191.65l3.44.2c1.14.07,2.29.08,3.44.09l6.87.12,1.91.03c.66.01,1.31.03,1.97,0,.43-.02.84-.17,1.15-.47.28-.28.49-.74.47-1.15-.04-.91-.71-1.58-1.62-1.62-1.14-.05-2.29.01-3.44.03l-3.44.06-3.44.06c-1.14.02-2.29,0-3.44.08l-3.87.23c-.31.02-.6.12-.83.34-.2.2-.36.54-.34.83.03.67.52,1.13,1.17,1.17h0Z"/>
            <path class="cls-27" d="M334.33,199.81l.62.16.31.08c.2.05.38.08.58.11l-.32-.04.79.12c.23.04.47.07.71.08h.4c.54.03,1.09.06,1.63.08l1.63.06c.28.01.55.02.83.03s.54-.02.8-.03l.45-.02c.08,0,.16,0,.24-.01.25-.02.38-.04.59-.13.09-.04.17-.07.25-.11.24-.13.47-.27.7-.41.61-.36.61-1.26,0-1.62-.2-.12-.41-.25-.61-.37-.05-.03-.1-.05-.14-.08-.23-.12-.33-.15-.56-.18-.1-.01-.19-.03-.29-.03-.13,0-.27-.01-.4-.02l-.83-.03c-.27-.01-.54.01-.8.02l-3.26.12c-.41.02-.8.03-1.21.09-.3.05-.61.09-.91.14l.32-.04c-.2.03-.39.06-.58.11l-.31.08-.62.16c-.36.09-.66.47-.65.85s.26.75.65.85h0Z"/>
          </g>
          <g>
            <path class="cls-27" d="M373.98,191.65l3.44.2c1.14.07,2.29.08,3.44.09l6.87.12,1.91.03c.66.01,1.31.03,1.97,0,.43-.02.84-.17,1.15-.47.28-.28.49-.74.47-1.15-.04-.91-.71-1.58-1.62-1.62-1.14-.05-2.29.01-3.44.03l-3.44.06-3.44.06c-1.14.02-2.29,0-3.44.08l-3.87.23c-.31.02-.6.12-.83.34-.2.2-.36.54-.34.83.03.67.52,1.13,1.17,1.17h0Z"/>
            <path class="cls-27" d="M373.24,199.81l.62.16.31.08c.2.05.38.08.58.11l-.32-.04.79.12c.23.04.47.07.71.08h.4c.54.03,1.09.06,1.63.08l1.63.06c.28.01.55.02.83.03s.54-.02.8-.03l.45-.02c.08,0,.16,0,.24-.01.25-.02.38-.04.59-.13.09-.04.17-.07.25-.11.24-.13.47-.27.7-.41.61-.36.61-1.26,0-1.62-.2-.12-.41-.25-.61-.37-.05-.03-.1-.05-.14-.08-.23-.12-.33-.15-.56-.18-.1-.01-.19-.03-.29-.03-.13,0-.27-.01-.4-.02l-.83-.03c-.27-.01-.54.01-.8.02l-3.26.12c-.41.02-.8.03-1.21.09-.3.05-.61.09-.91.14l.32-.04c-.2.03-.39.06-.58.11l-.31.08-.62.16c-.36.09-.66.47-.65.85s.26.75.65.85h0Z"/>
          </g>
          <g>
            <path class="cls-27" d="M212.79,267.64l3.44.2c1.14.07,2.29.08,3.44.09l6.87.12,1.91.03c.66.01,1.31.03,1.97,0,.43-.02.84-.17,1.15-.47.28-.28.49-.74.47-1.15-.04-.91-.71-1.58-1.62-1.62-1.14-.05-2.29.01-3.44.03l-3.44.06-3.44.06c-1.14.02-2.29,0-3.44.08l-3.87.23c-.31.02-.6.12-.83.34-.2.2-.36.54-.34.83.03.67.52,1.13,1.17,1.17h0Z"/>
            <path class="cls-27" d="M212.06,275.79l.62.16.31.08c.2.05.38.08.58.11l-.32-.04.79.12c.23.04.47.07.71.08h.4c.54.03,1.09.06,1.63.08l1.63.06c.28.01.55.02.83.03s.54-.02.8-.03l.45-.02c.08,0,.16,0,.24-.01.25-.02.38-.04.59-.13.09-.04.17-.07.25-.11.24-.13.47-.27.7-.41.61-.36.61-1.26,0-1.62-.2-.12-.41-.25-.61-.37-.05-.03-.1-.05-.14-.08-.23-.12-.33-.15-.56-.18-.1-.01-.19-.03-.29-.03-.13,0-.27-.01-.4-.02l-.83-.03c-.27-.01-.54.01-.8.02l-3.26.12c-.41.02-.8.03-1.21.09-.3.05-.61.09-.91.14l.32-.04c-.2.03-.39.06-.58.11l-.31.08-.62.16c-.36.09-.66.47-.65.85s.26.75.65.85h0Z"/>
          </g>
          <line class="cls-1" x1="81.55" y1="349.38" x2="547.33" y2="349.38"/>
        </g>
        <g>
          <rect class="cls-24" x="440.54" y="209.61" width="34.71" height="21.14"/>
          <rect class="cls-39" x="433.69" y="192.96" width="48.4" height="25.58" rx="4.04" ry="4.04"/>
          <g class="cls-13">
            <line class="cls-8" x1="439.95" y1="192.96" x2="439.95" y2="218.54"/>
            <line class="cls-8" x1="447.13" y1="192.96" x2="447.13" y2="218.54"/>
            <line class="cls-8" x1="454.3" y1="192.96" x2="454.3" y2="218.54"/>
            <line class="cls-8" x1="461.48" y1="192.96" x2="461.48" y2="218.54"/>
            <line class="cls-8" x1="468.66" y1="192.96" x2="468.66" y2="218.54"/>
            <line class="cls-8" x1="475.84" y1="192.96" x2="475.84" y2="218.54"/>
          </g>
          <g>
            <rect class="cls-38" x="501.08" y="230.5" width="17.53" height="29.43" rx="1.55" ry="1.55" transform="translate(-24.06 432.34) rotate(-45)"/>
            <rect class="cls-38" x="391.22" y="236.45" width="29.43" height="17.53" rx="1.55" ry="1.55" transform="translate(-54.5 358.87) rotate(-45)"/>
          </g>
          <g>
            <circle class="cls-39" cx="457.89" cy="302.24" r="77.35" transform="translate(-43.9 80.38) rotate(-9.58)"/>
            <circle class="cls-4" cx="457.89" cy="302.24" r="67.92"/>
            <circle class="cls-42" cx="457.89" cy="302.24" r="64.68"/>
            <g>
              <g>
                <g>
                  <path class="cls-24" d="M460.49,244.13c0,1.44-1.16,2.6-2.6,2.6s-2.6-1.16-2.6-2.6,1.16-2.6,2.6-2.6,2.6,1.16,2.6,2.6Z"/>
                  <path class="cls-24" d="M460.49,360.36c0,1.44-1.16,2.6-2.6,2.6s-2.6-1.16-2.6-2.6,1.16-2.6,2.6-2.6,2.6,1.16,2.6,2.6Z"/>
                </g>
                <g>
                  <path class="cls-24" d="M516.01,304.85c-1.44,0-2.6-1.16-2.6-2.6s1.16-2.6,2.6-2.6,2.6,1.16,2.6,2.6-1.16,2.6-2.6,2.6Z"/>
                  <path class="cls-24" d="M399.77,304.85c-1.44,0-2.6-1.16-2.6-2.6s1.16-2.6,2.6-2.6,2.6,1.16,2.6,2.6-1.16,2.6-2.6,2.6Z"/>
                </g>
              </g>
              <g>
                <path class="cls-24" d="M430.13,254.94c-.27,0-.53-.14-.67-.39l-2.6-4.51c-.21-.37-.09-.84.28-1.06.37-.21.84-.09,1.06.28l2.6,4.51c.21.37.09.84-.28,1.06-.12.07-.26.1-.39.1Z"/>
                <path class="cls-24" d="M488.25,355.61c-.27,0-.53-.14-.67-.39l-2.6-4.51c-.21-.37-.09-.84.28-1.06.37-.21.84-.09,1.06.28l2.6,4.51c.21.37.09.84-.28,1.06-.12.07-.26.1-.39.1Z"/>
              </g>
              <g>
                <path class="cls-24" d="M409.81,275.26c-.13,0-.26-.03-.39-.1l-4.51-2.6c-.37-.21-.5-.69-.28-1.06.21-.37.69-.5,1.06-.28l4.51,2.6c.37.21.5.69.28,1.06-.14.25-.4.39-.67.39Z"/>
                <path class="cls-24" d="M510.48,333.38c-.13,0-.26-.03-.39-.1l-4.51-2.6c-.37-.21-.5-.69-.28-1.06.21-.37.69-.5,1.06-.28l4.51,2.6c.37.21.5.69.28,1.06-.14.25-.4.39-.67.39Z"/>
              </g>
              <g>
                <path class="cls-24" d="M505.97,275.26c-.27,0-.53-.14-.67-.39-.21-.37-.09-.84.28-1.06l4.51-2.6c.37-.21.84-.09,1.06.28s.09.84-.28,1.06l-4.51,2.6c-.12.07-.26.1-.39.1Z"/>
                <path class="cls-24" d="M405.31,333.38c-.27,0-.53-.14-.67-.39-.21-.37-.09-.84.28-1.06l4.51-2.6c.37-.22.84-.09,1.06.28.21.37.09.84-.28,1.06l-4.51,2.6c-.12.07-.26.1-.39.1Z"/>
              </g>
              <g>
                <path class="cls-24" d="M485.65,254.94c-.13,0-.26-.03-.39-.1-.37-.21-.5-.69-.28-1.06l2.6-4.51c.21-.37.69-.5,1.06-.28.37.21.5.69.28,1.06l-2.6,4.51c-.14.25-.4.39-.67.39Z"/>
                <path class="cls-24" d="M427.53,355.61c-.13,0-.26-.03-.39-.1-.37-.21-.5-.69-.28-1.06l2.6-4.51c.21-.37.69-.5,1.06-.28.37.21.5.69.28,1.06l-2.6,4.51c-.14.25-.4.39-.67.39Z"/>
              </g>
            </g>
            <path class="cls-49" d="M465.04,302.24c0,3.94-3.2,7.14-7.14,7.14s-7.14-3.2-7.14-7.14,3.2-7.14,7.14-7.14,7.14,3.2,7.14,7.14Z"/>
            <g>
              <path class="cls-39" d="M454.03,304.24l-16.33-34.37,23.37,30.04c1.41,1.81,1.08,4.42-.73,5.83-1.81,1.41-4.42,1.08-5.83-.73-.18-.24-.35-.51-.47-.77Z"/>
              <path class="cls-39" d="M458.33,298.32l55.2,4.43-55.46,3.83c-2.29.13-4.25-1.61-4.38-3.9s1.61-4.25,3.9-4.38c.24-.01.5,0,.74.02Z"/>
            </g>
          </g>
        </g>
        <g>
          <path class="cls-34" d="M367.85,54.64s6.87,20.87-1.67,57.85h-39.52l-2.89-23.18s-5.78-3.27-8.28-9.7c-3.33-8.57,3.84-19.18,3.84-19.18l3.66-13.18s5.67-3.88,6.04-3.51,38.83,10.9,38.83,10.9Z"/>
          <path class="cls-24" d="M341.48,6.94c11.15-1.45,14.85,12.4,15.33,14.27.53,2.09,1.61,4,2.23,6.06.47,1.54.6,3.42-.54,4.56-.39.39-.89.65-1.39.88-1.89.87-3.93,1.41-6,1.59-1.73.15-3.46.06-5.19-.04-5.02-.27-10.03-.46-15.06-.21-3.11.15-6.53.35-9-1.54-.3-.23-.59-.5-.72-.85-.16-.43-.05-.91.05-1.36,1.33-5.43,2.75-11.58,6.31-16.02,2.78-3.46,7.08-5.94,11.51-5.61"/>
          <path class="cls-34" d="M326.66,43.72s-10.82,3.33-16.95,12.26c-7.43,10.83-11.47,26.33-10.13,38.12,2.74,24.1,26.82,43.12,26.82,43.12l3.2-4.53-11.48-43.38,8.28-29.42"/>
          <path class="cls-34" d="M356.38,42.67s14.43.26,27.68,13.5c11.69,11.69,17.14,23.33,12.45,35.95-4.1,11.03-19.95,25.61-19.95,25.61l-6.1-4.51s8.26-18.31,8.57-23.4c.43-7.18-21.26-20.73-21.26-20.73"/>
          <g>
            <polygon class="cls-24" points="329.19 202.23 308.37 193.44 372.07 43.55 392.9 52.34 329.19 202.23"/>
            <polygon class="cls-14" points="322.97 199.6 314.59 196.06 378.29 46.18 386.68 49.71 322.97 199.6"/>
            <rect class="cls-27" x="371.99" y="43.96" width="22.6" height="4.14" transform="translate(48.03 -145.36) rotate(22.87)"/>
            <path class="cls-51" d="M380.13,33.16h12.37c2.82,0,5.12,2.29,5.12,5.12v6.29h-22.6v-6.29c0-2.82,2.29-5.12,5.12-5.12Z" transform="translate(45.48 -147.1) rotate(22.87)"/>
            <path class="cls-15" d="M308.37,193.44l2.03,20.3c.14,1.39,1.76,2.07,2.84,1.2l15.95-12.71-20.83-8.79Z"/>
            <path class="cls-12" d="M314.59,196.06l-3.34,18.03c-.23,1.23.42,1.51,1.15.48l10.58-14.98-8.39-3.54Z"/>
            <path class="cls-36" d="M313.04,211.44c-.96-.4-1.96-.49-2.91-.33l.26,2.64c.14,1.39,1.76,2.07,2.84,1.2l2.07-1.65c-.55-.79-1.31-1.45-2.27-1.85Z"/>
          </g>
          <g>
            <path class="cls-15" d="M328.22,14.26c-.86,5.92.69,19.54,4.68,20.67,1.67.47,3.88.08,6.04-1.25,4.68-2.88,7.25-7.36,7.55-11.03.38-4.6-12.62-19.11-18.28-8.39Z"/>
            <path class="cls-24" d="M350.97,13.07c2.12,6.49,1.3,13.11-5,14.71-.05.5.94-5.02-1.55-4.83-.82.06-1.85,1.9-2.61,1.44-.64-.38-.17-6.58-.17-6.58-4.57.28-8.62-2.67-9.29-4.07-1.86,1.4-3.45,3.16-4.64,5.16-3.1-3.72.07-8.28,1.94-10.12,3.98-3.92,11.04-4.2,15.85-1.59,1.62.88,4.22,2.02,5.48,5.88Z"/>
            <path class="cls-15" d="M338.02,31.94l-1.25,8.55-10.12,3.23s-3.28,13.08,14.52,13.08,20.36-12.71,19.53-13.55c-2.4-.9-11.18-2.6-11.18-2.6l-2.95-13.05"/>
            <path class="cls-2" d="M331.94,22.77s-1.73,4.02-1.14,4.77c.59.75,2.47.08,2.47.08"/>
            <path class="cls-37" d="M337,22.13s.08.1.11.15c.25.37.26.75.33,1.18.1.68-1.04.77-1.08.06-.02-.43-.03-.9.08-1.32.11-.42.36-.29.56-.07Z"/>
            <path class="cls-37" d="M330.8,22.02c.03.05.06.11.08.17.18.41.11.79.09,1.22-.03.69-1.17.56-1.07-.15.06-.43.14-.89.34-1.28.19-.39.41-.21.56.04Z"/>
            <path class="cls-24" d="M340.41,21.17s-.02-.33-.26-.79c-.24-.44-.73-.93-1.35-1.22-.62-.28-1.35-.32-1.85-.14-.25.08-.43.23-.54.32-.11.11-.15.18-.15.18,0,0,.09,0,.22-.01.13-.01.32.02.53.05.41.07.92.24,1.41.46.49.22.97.49,1.34.73.17.12.36.21.46.3.12.08.19.12.19.12Z"/>
            <path class="cls-24" d="M332.01,19.91s-.03-.06-.09-.15c-.06-.07-.19-.22-.37-.3-.35-.2-.93-.22-1.41-.03-.48.2-.85.59-1,.95-.15.36-.11.63-.11.63,0,0,.07-.03.15-.08.08-.06.22-.12.36-.19.28-.14.62-.3.95-.44.33-.14.66-.26.95-.31.28-.08.56-.06.56-.07Z"/>
            <path class="cls-42" d="M336.77,28.83c.18,4.14-3.51,5.5-5.09,1.14l5.09-1.14Z"/>
            <path class="cls-9" d="M343.17,30.31s-2.08,2.91-5.3,3.95"/>
            <path class="cls-15" d="M343.33,24.33c.18-2.27,2.49-2.2,3.15-1.83.48.26.74.81.87,1.34.33,1.34.05,2.81-.75,3.93-.29.4-.65.76-1.1.96-1.26.56-2.27-.32-2.44-1.46"/>
            <path class="cls-24" d="M342.85,7.22c2.28-.37,4.82-2.27,3.56-5-1.23-2.67-3.96-2.82-5.91-1.03-.85.78-1.27,2-1.08,3.14.19,1.14.99,2.16,2.04,2.62"/>
            <path class="cls-5" d="M339.57,5.35c1.93-.04,4.05.39,5.73,1.35"/>
          </g>
          <g>
            <path class="cls-3" d="M323.76,89.31s-5.78-3.34-8.28-9.7c-3.33-8.48,3.84-20.42,3.84-20.42"/>
            <path class="cls-3" d="M340.61,56.79s-1.69,12.39-1.48,19.5"/>
            <path class="cls-26" d="M343.17,59.36c0,.34-.27.61-.61.61s-.61-.27-.61-.61.27-.61.61-.61.61.27.61.61Z"/>
            <path class="cls-26" d="M342.56,65.93c0,.34-.27.61-.61.61s-.61-.27-.61-.61.27-.61.61-.61.61.27.61.61Z"/>
            <path class="cls-26" d="M341.94,72.49c0,.34-.27.61-.61.61s-.61-.27-.61-.61.27-.61.61-.61.61.27.61.61Z"/>
          </g>
          <path class="cls-15" d="M370.88,113.53l-1.99,3.5s-2.48.34-4.26,1.83c-1.5,1.26-4.66,3.71-3.41,4.15,1.24.43,2.18-.79,2.43-.11.26.72-.68,3.31-2.07,4.13-.68.4-3.92,1.71-3.7,2.35.45,1.28,5.74.87,8.51-.47s5.56-9.14,5.56-9.14l3.66-2.75"/>
          <path class="cls-15" d="M329.41,132.95l2.43,5.11s3.43,2.97,4.08,4.82,1.33,5.57.14,5c-1.19-.57-1.45-2.65-2.1-2.34-.69.32-1.66,1.94-1.94,4.41-.09.79.34,4.21-.27,4.5-1.22.59-2.96-3.69-3.54-6.71-.36-1.87.29-8.04.29-8.04l-1.95-2.71"/>
        </g>
        <g>
          <circle class="cls-41" cx="166.75" cy="117.84" r="39.67" transform="translate(-6.4 226.05) rotate(-67.25)"/>
          <circle class="cls-39" cx="166.75" cy="117.84" r="28.7" transform="translate(13.17 252.39) rotate(-76.47)"/>
          <path class="cls-41" d="M186.46,117.84c0,10.89-8.83,19.71-19.71,19.71s-19.71-8.83-19.71-19.71,8.83-19.71,19.71-19.71,19.71,8.83,19.71,19.71Z"/>
          <path class="cls-39" d="M177.08,117.84c0,5.7-4.62,10.33-10.33,10.33s-10.33-4.62-10.33-10.33,4.62-10.33,10.33-10.33,10.33,4.62,10.33,10.33Z"/>
          <g>
            <polygon class="cls-24" points="168.35 119.44 161.86 119.44 168.35 112.95 168.35 119.44"/>
            <polygon class="cls-24" points="126.3 77.39 118.88 77.39 118.88 75.52 124.43 75.52 124.43 69.97 126.3 69.97 126.3 77.39"/>
            <polygon class="cls-43" points="122.9 73.99 115.48 73.99 115.48 72.12 121.03 72.12 121.03 66.57 122.9 66.57 122.9 73.99"/>
            <rect class="cls-24" x="143.16" y="63.45" width="1.87" height="63.45" transform="translate(-25.1 129.77) rotate(-45)"/>
          </g>
        </g>
        <g>
          <path class="cls-35" d="M539.37,359.26c.95.03,1.92.04,2.89.04,19.91-.13,36.53-7.46,49.4-21.78,20.54-22.85,27.98-59.82,30.6-86.81,2.84-29.22.81-53.36.79-53.6-.02-.18-.18-.32-.35-.3-.18.02-.31.18-.3.36.08.96,7.87,96.41-31.23,139.9-12.74,14.18-29.2,21.43-48.92,21.56-18.39.14-33.11-6.5-43.74-19.67-18.91-23.44-21.74-63.93-20.79-93.76,1.04-32.36,6.62-59.5,6.68-59.77.04-.18-.08-.35-.25-.39-.18-.04-.35.08-.39.26-.06.27-5.66,27.47-6.69,59.89-.96,29.95,1.9,70.6,20.93,94.2,10.2,12.64,24.1,19.32,41.36,19.88Z"/>
          <path class="cls-24" d="M559.3,152.36s8.49-5.27,14.85,1.6c8.02,8.68.79,32.94.79,32.94l-14.37-1.91,1.02-22.69-2.29-9.94Z"/>
          <rect class="cls-42" x="536.13" y="342.39" width="20.73" height="19.56" transform="translate(1081.27 721.88) rotate(-178.14)"/>
          <polygon class="cls-42" points="592.68 337.07 598.29 317.25 579.33 311.94 573.72 331.75 592.68 337.07"/>
          <path class="cls-19" d="M558.2,362.64l-.04,8.47c0,.69-.57,1.25-1.27,1.25l-50.62-.32c-.7,0-1.26-.57-1.26-1.27v-1.71c.01-.8.67-1.45,1.48-1.45h.7s.91-4.02,6.14-7.16l20.01-9.35,24.04.15-.05,10.49c.49,0,.88.4.88.89Z"/>
          <path class="cls-46" d="M536.01,349.63s-22.83,8.87-22.01,10.62c.82,1.75,5.5,2.49,9.11,2.03,3.33-.42,17.37-7.16,17.28-9.59-.1-2.43-2.86-3.66-4.37-3.06Z"/>
          <path class="cls-46" d="M558.2,362.57l-.04,8.54c0,.69-.57,1.25-1.27,1.25l-50.62-.32c-.7,0-1.26-.57-1.26-1.27v-1.71c.01-.8.67-1.45,1.48-1.45h.7s38.92-.25,38.92-.25c0,0,1.16-3.4,4.99-5.02,3.82-1.63,6.23-.6,6.23-.6.52,0,.88.37.88.82Z"/>
          <path class="cls-19" d="M602.78,317.57l8.2,2.35c.67.19,1.06.89.87,1.56l-13.95,48.32c-.19.67-.89,1.05-1.57.86l-1.66-.47c-.78-.22-1.23-1.03-1-1.8l.19-.67s-3.66-1.96-5.29-7.82l-3.67-21.68,6.62-22.95,10.15,2.9c.13-.47.63-.74,1.1-.6Z"/>
          <path class="cls-46" d="M583.78,335.07s2.44,24.24,4.36,23.94c1.92-.31,3.89-4.59,4.43-8.16.49-3.3-2.26-18.56-4.64-19.13-2.38-.57-4.32,1.74-4.15,3.35Z"/>
          <path class="cls-46" d="M602.72,317.55l8.26,2.36c.67.19,1.06.89.87,1.56l-13.95,48.32c-.19.67-.89,1.05-1.57.86l-1.66-.47c-.78-.22-1.23-1.03-1-1.8l.19-.67,10.24-37.29s-2.99-2.04-3.52-6.13c-.55-4.1,1.1-6.12,1.1-6.12.14-.49.6-.74,1.04-.62Z"/>
          <path class="cls-34" d="M528.06,231.72s-19.08,61.51-12.45,76.72c6.63,15.2,60.2,36.49,60.2,36.49l14.45-33.11-31.47-20.69-12.07-52.06-18.65-7.34Z"/>
          <path class="cls-34" d="M569.22,234.18s3.33,37.27.46,60.29c-2.87,23.02-5.18,53.74-5.18,53.74l-34.87-.77,7.46-115.42,32.12,2.17Z"/>
          <path class="cls-15" d="M482.46,192.06c.33.79,3.86,6.51,10.55,8.16,6.7,1.64,7.48-6.64,7.48-6.64l-9.2-7.18-8.84,5.67Z"/>
          <path class="cls-15" d="M538.7,204.79s-4.38,9-13.21,12.23-31.92-17.54-31.92-17.54l7.46-9.78,20.25,5.36,17.42,9.73Z"/>
          <path class="cls-17" d="M556.39,179.74s9.23.27,14.05,5.34c4.82,5.07-.88,53-.88,53,0,0-17.04.13-26.63-.86-8.5-.88-15.87-4.13-15.87-4.13,0,0,5.27-47.06,8.01-51.71s21.32-1.64,21.32-1.64Z"/>
          <path class="cls-15" d="M558.39,174.28l-.29,7.63s-2.35,2.33-5.23,2.24c-3.89-.13-5.09-4.01-5.09-4.01l.43-8.94,10.19,3.08Z"/>
          <path class="cls-25" d="M558.39,174.28s-1.74,6.85-6.12,5.96c-3.53-.71-4.16-5.89-4.16-5.89l10.28-.07Z"/>
          <path class="cls-15" d="M546.95,159.07s-2.4,9.94.59,14.91c2.99,4.96,7.25,3.76,9.2,2.39,2.63-1.85,3.28-4.56,3.28-4.56,0,0,3.45.87,4.75-1.94,1.37-2.96-.69-5.5-2.42-5.73s-1.95.08-1.95.08l.67-3.2s-10.01-12.44-14.11-1.95Z"/>
          <path class="cls-15" d="M548.4,163.85s-5.17-2.54-5.78,1.57c-.71,4.77,4.95,5.09,4.95,5.09l.83-6.67Z"/>
          <path class="cls-25" d="M551.29,169.99c.23-.02.36-.19.34-.37-.29-2.56.69-4.61.7-4.63.08-.16.01-.36-.15-.44-.16-.08-.36-.01-.44.15-.04.09-1.08,2.23-.76,5,.02.16.15.29.31.29Z"/>
          <path class="cls-24" d="M548.45,162.09c.05,0,.1,0,.15-.03.66-.32,1.65-.04,1.66-.04.17.05.35-.05.4-.23.05-.18-.05-.36-.22-.41-.05-.01-1.24-.35-2.12.08-.16.08-.23.28-.15.44.05.11.17.18.28.19Z"/>
          <path class="cls-24" d="M556.63,163.17c.08,0,.17-.03.23-.09.13-.12.14-.33.02-.47-.66-.73-1.89-.86-1.94-.87-.2-.02-.34.12-.36.3-.02.18.11.34.29.36.01,0,1.03.11,1.52.66.06.07.15.1.23.11Z"/>
          <path class="cls-24" d="M558.82,165.06s-2.47-1.81-2.24-4.43c.23-2.62.83-3.27.83-3.27,0,0-2.64,1.31-5.84.22-3.62-1.23-5.47-6.38-3.44-7.7,2.27-1.47,7.6.88,7.6.88,0,0,5.67-.13,9.21,4.54,3.55,4.67-.76,9.89-.76,9.89,0,0-1.57-1.87-5.37-.12Z"/>
          <path class="cls-25" d="M551.73,172.79c1.44.05,2.63-1.11,2.69-1.17.13-.13.13-.34,0-.47-.13-.13-.33-.13-.46,0-.01.01-1.4,1.35-2.76.88-.17-.06-.36.03-.42.21-.06.17.03.36.2.42.25.09.5.13.74.14Z"/>
          <path class="cls-24" d="M549.04,153.15s-2.5,2.17-3.16,4.89c-.66,2.72-.16,5.06-.16,5.06h.55s1.52-6.59,3.66-7.13c2.14-.54-.89-2.82-.89-2.82Z"/>
          <path class="cls-17" d="M535.73,209.78l-6.17,5.28-11.13-23.34s17.18-12.25,22.26-12.7c5.08-.45-4.96,30.75-4.96,30.75Z"/>
          <path class="cls-15" d="M625.02,206.32c-.5.7-5.17,5.49-12.07,5.61-6.89.11-5.86-8.15-5.86-8.15l10.53-4.96,7.39,7.5Z"/>
          <path class="cls-15" d="M570.84,204.47s-.02,12.97,5.35,16.62c7.8,5.3,36.37-9.99,36.37-9.99l-5.15-11.2-18.36.64-18.22,3.94Z"/>
          <path class="cls-35" d="M483.31,183.97c-.87.82-.91,2.2-.1,3.08l10.13,10.93c.81.88,2.17.92,3.04.1s.91-2.2.1-3.08l-10.13-10.93c-.81-.88-2.17-.92-3.04-.1Z"/>
          <path class="cls-35" d="M610.35,209.66c.81.88,2.17.92,3.04.1l10.8-10.25c.87-.82.91-2.2.1-3.08s-2.17-.92-3.04-.1l-10.8,10.25c-.87.82-.91,2.2-.1,3.08Z"/>
          <path class="cls-17" d="M562.73,180.89s10.28.33,17.64,6.86c9.63,8.55,11.22,12.69,11.22,12.69l-23.9,14.04-4.95-33.59Z"/>
          <path d="M555.15,166.13c.16,0,.31-.12.33-.29l.24-1.72c.02-.12-.03-.24-.13-.31l-.95-.71c-.15-.11-.35-.08-.46.07-.11.15-.08.35.07.46l.79.59-.21,1.52c-.02.18.1.35.28.37.01,0,.02,0,.04,0Z"/>
          <path d="M548.66,165.24c.16,0,.31-.12.33-.29l.23-1.72c.02-.12-.03-.24-.13-.31l-.81-.63c-.14-.11-.35-.08-.46.06-.11.15-.08.35.06.46l.66.51-.21,1.52c-.02.18.1.35.28.37.01,0,.02,0,.03,0Z"/>
          <path class="cls-47" d="M531.24,321.51c.17,0,.32-.13.34-.3l6.33-70.25c.01-.16-.08-.3-.23-.35l-8.13-2.38c-.17-.05-.35.05-.4.23-.05.18.05.36.22.41l7.87,2.3-6.3,69.98c-.02.18.12.34.3.36,0,0,.01,0,.02,0Z"/>
          <path class="cls-15" d="M606.45,200.34s5.49-4.76,8.11-4.49c2.62.27,6.11,2.3,6.73,5.17.62,2.88-4.94.16-4.94.16,0,0-4.71,5.56-8.36,5.11-3.65-.45-1.54-5.95-1.54-5.95Z"/>
          <path class="cls-25" d="M608.94,206.68c2.79.09,4.4-2.2,4.42-2.23.1-.15.07-.36-.08-.46-.15-.11-.35-.07-.45.08-.09.13-2.29,3.23-6.04,1.36-.16-.08-.36-.01-.44.15-.08.16-.01.36.15.44.89.44,1.71.63,2.44.66Z"/>
          <path class="cls-15" d="M501.87,190.36s-4.32-5.86-6.94-6.19c-2.61-.32-6.46.88-7.69,3.55s4.79,1.25,4.79,1.25c0,0,3.39,6.47,7.05,6.84,3.66.37,2.79-5.46,2.79-5.46Z"/>
          <path class="cls-25" d="M498.32,196.29c.71.02,1.48-.12,2.31-.42.17-.06.26-.25.2-.42-.06-.17-.25-.26-.42-.2-1.4.51-2.6.51-3.57-.01-1.51-.81-1.98-2.61-1.98-2.63-.04-.18-.22-.29-.4-.24-.17.04-.28.22-.24.4.02.09.54,2.1,2.31,3.05.54.29,1.14.45,1.79.47Z"/>
          <path class="cls-15" d="M622.42,199.83s5.73,4.45,5.48,5.96c-.24,1.51-2.89.53-2.89.53,0,0,1.56,1.93-.08,2.67-1.65.74-2.87-.09-2.87-.09,0,0,.53.81-1.01,1.75-1.54.94-5.38-4.92-4.99-6.3.39-1.37,2.9.11,2.9.11,0,0-1.29-2.93-.11-3.14l1.18-.21s.86-2.54,2.39-1.28Z"/>
          <path class="cls-15" d="M486.81,187.98s-6,4.07-5.85,5.59c.15,1.52,2.85.72,2.85.72,0,0-1.68,1.83-.08,2.67,1.6.84,2.87.09,2.87.09,0,0-.58.77.9,1.81s5.68-4.56,5.37-5.96c-.3-1.4-2.9-.07-2.9-.07,0,0,1.47-2.84.31-3.13l-1.16-.29s-.7-2.59-2.3-1.43Z"/>
          <path class="cls-25" d="M625.01,206.65c.09,0,.17-.03.24-.09.13-.13.13-.34,0-.47l-4.98-5.21c-.13-.13-.33-.13-.46,0-.13.13-.13.34,0,.47l4.98,5.21c.06.06.14.1.22.1Z"/>
          <path class="cls-25" d="M622.05,209.23c.07,0,.14-.02.2-.06.15-.11.18-.31.08-.46l-3.09-4.43c-.11-.15-.31-.18-.46-.08-.15.11-.18.31-.08.46l3.09,4.43c.06.09.16.14.26.14Z"/>
          <path class="cls-25" d="M483.8,194.62c.08,0,.16-.03.23-.09l5.3-4.87c.13-.12.14-.33.02-.47-.12-.14-.33-.15-.46-.02l-5.3,4.87c-.13.12-.14.33-.02.47.06.07.15.11.23.11Z"/>
          <path class="cls-25" d="M486.59,197.39c.1,0,.2-.04.27-.12l3.37-4.22c.11-.14.09-.35-.05-.47-.14-.11-.35-.09-.46.05l-3.37,4.22c-.11.14-.09.35.05.47.06.05.13.07.19.07Z"/>
          <path class="cls-50" d="M552.51,184.38c2.89.09,5.61-1.61,5.75-1.69.15-.1.2-.3.1-.46-.1-.15-.3-.2-.45-.11-.04.02-3.6,2.24-6.66,1.41-1.36-.37-2.44-1.3-3.21-2.76-.08-.16-.28-.22-.44-.14-.16.09-.22.29-.14.45.85,1.63,2.07,2.67,3.62,3.09.47.13.95.19,1.43.21Z"/>
          <path class="cls-50" d="M529.55,215.4c.17,0,.32-.13.34-.3l.59-7.24c0-.12-.61-5.34-.06-10.52.55-5.1,5.38-10.38,5.43-10.43.12-.13.12-.34-.02-.47-.13-.13-.34-.12-.46.02-.2.22-5.03,5.49-5.6,10.81-.56,5.25.05,10.55.06,10.6l-.59,7.18c-.01.18.12.34.3.36,0,0,.01,0,.02,0Z"/>
          <path class="cls-50" d="M571.64,212.48c.24-.03.36-.2.33-.38l-.68-4.91c-.03-.18-.19-.31-.37-.28-.18.03-.3.19-.28.37l.68,4.91c.02.16.16.28.31.28Z"/>
          <path class="cls-47" d="M567.57,249.83c.11,0,.22-.05.29-.15.1-.15.05-.36-.1-.46-3.77-2.41-5.77-7.89-5.79-7.95-.06-.17-.25-.26-.42-.2-.17.06-.26.25-.19.42.08.23,2.1,5.74,6.06,8.28.05.03.11.05.16.05Z"/>
          <rect class="cls-48" x="528.28" y="338.43" width="38.85" height="9.58" rx="1.57" ry="1.57" transform="translate(1083.99 704.02) rotate(-178.14)"/>
          <path class="cls-48" d="M577.05,345.38l14.69-33.87c.47-1.07.03-2.34-.97-2.84l-4.49-2.22c-1-.49-2.19-.02-2.66,1.05l-14.69,33.87c-.47,1.07-.03,2.34.97,2.84l4.49,2.21c1,.49,2.19.02,2.66-1.05Z"/>
        </g>
      </g>
      <g id="DESIGNED_BY_FREEPIK" data-name="DESIGNED BY FREEPIK">
        <g>
          <path class="cls-27" d="M2.6,252.19l47.82-20.42c2.1-.9,4.53-.02,5.56,1.99l2.31,4.53,9.75,19.09-19.81,12.01s-18.21-4.08-31.45-4.13c-6.25-.02-10.9-2.44-14.09-4.99-.49-.4-.93-.79-1.36-1.18-2.23-2.08-1.55-5.72,1.27-6.92Z"/>
          <path class="cls-24" d="M2.6,252.19l47.82-20.42c2.1-.9,4.53-.02,5.56,1.99l2.31,4.53-55.61,21.99c-.49-.4-.93-.79-1.36-1.18-2.23-2.08-1.55-5.72,1.27-6.92Z"/>
          <path class="cls-29" d="M35.85,278.66c-.55,0-.91-.24-1.14-.48-1.12-1.17-.89-4.43-.38-7.4-1,2.34-2.29,4.67-3.63,5.19-.51.19-1,.15-1.46-.15-.44-.28-.7-.7-.78-1.25-.5-3.33,6.03-11.04,6.31-11.36.12-.14.32-.15.46-.04.14.12.15.32.04.46-.07.08-6.62,7.81-6.16,10.85.06.36.22.63.49.8.29.18.57.21.88.09,2.06-.79,4.33-7.34,5.1-10.01.02-.06.03-.12.05-.16.05-.17.22-.27.4-.22.17.05.27.23.22.4,0,.02-.02.06-.03.11-.84,2.96-2.57,10.62-1.02,12.25.25.26.58.34,1.03.23.6-.14,1.03-.48,1.33-1.04,1.52-2.88-1.21-10.08-1.24-10.16-.06-.17.02-.35.19-.42.17-.07.35.02.42.19.12.31,2.87,7.55,1.21,10.69-.38.73-.97,1.19-1.75,1.37-.18.04-.35.06-.51.06Z"/>
          <polygon class="cls-15" points="122.97 333.94 132.67 361.9 144.79 369.55 163.81 369.73 154.99 350.79 144.09 328.07 122.97 333.94"/>
          <path class="cls-45" d="M115.83,238.09l42.79,101.12-35.33,8.02-15.24-34.07s-21.45,11.52-36.75-4.45c-15.3-15.97-27.47-39.45-27.47-39.45l24.21-13.81s-2.84-22.1,6.83-26.96c9.66-4.86,40.96,9.61,40.96,9.61Z"/>
          <path class="cls-27" d="M188.58,379.7l-52.13.73c-2.29.03-4.19-1.7-4.35-3.94l-.36-5.06-1.69-17.08,23.16-7.81s15.21,10.66,27.41,15.72c5.76,2.38,9.11,6.38,11.05,9.94.3.55.55,1.08.79,1.6,1.25,2.76-.81,5.87-3.88,5.91Z"/>
          <path class="cls-15" d="M123.83,212.7s7.31,9.23,20.37,8.75c12.57-.46,28.26-11.95,28.26-11.95l-2.51-10.92s-15.47-.06-23.43-1.31c-7.96-1.25-13.99-3.15-13.99-3.15l-8.7,18.58Z"/>
          <path class="cls-15" d="M165.22,201.19s3.4-5.72,4.77-6.8c1.37-1.08,5.21-.95,5.21-.95,0,0,6.85-.93,8.09.27,1.24,1.2.2,4.07.2,4.07,0,0,3.17,7.31,1.36,11.52-1.8,4.21-17.13,2.82-17.13,2.82l-4.9-6.19,2.39-4.73Z"/>
          <path class="cls-15" d="M182.68,211.08s-7.2,3.06-8.59-.03c-1.39-3.09-2.09-8.62-2.09-8.62l9.11-3.44,1.57,12.1Z"/>
          <path class="cls-25" d="M167.51,205.97c-.44,0-.89-.07-1.37-.23-.17-.06-.26-.24-.21-.41.05-.17.24-.26.41-.21,4.01,1.33,6.61-4.8,6.64-4.87.03-.08.1-.15.19-.18.09-.03.18-.02.26.02.04.02,3.71,1.9,5.04-.39.15-.25.17-.52.06-.82-.63-1.84-5.44-4.1-7.24-4.81-.17-.07-.25-.25-.18-.42.07-.17.25-.24.42-.18.28.11,6.76,2.72,7.62,5.21.17.48.13.94-.12,1.36-1.23,2.1-4.04,1.5-5.59.78-.55,1.17-2.65,5.15-5.93,5.15Z"/>
          <path class="cls-25" d="M176.54,209.22c-.07,0-.15-.03-.21-.08-.09-.08-2.31-2-1.78-3.64.49-1.53,7.43-2.76,9.54-3.11.17-.03.34.09.37.27.03.18-.09.34-.27.37-4.24.69-8.77,1.87-9.03,2.67-.33,1.03,1.04,2.48,1.59,2.95.14.12.15.32.04.46-.06.07-.16.11-.25.11Z"/>
          <path class="cls-25" d="M176.51,212.55c-.1,0-.21-.05-.27-.14-.04-.06-.95-1.43-.69-2.62.1-.49.38-.88.83-1.16,1.67-1.05,7.83-.68,8.09-.66.18.01.31.17.3.34-.01.18-.17.3-.34.3-1.72-.11-6.46-.21-7.7.57-.29.18-.47.43-.54.74-.2.93.59,2.12.6,2.13.1.15.06.35-.09.45-.05.04-.12.06-.18.06Z"/>
          <path class="cls-25" d="M175.34,205.42s-.05,0-.08-.01c-.06-.02-1.46-.4-1.83-1.58-.28-.88.09-1.92,1.08-3.09.12-.14.32-.15.46-.04.14.12.15.32.04.46-.84,1-1.16,1.83-.96,2.48.27.85,1.37,1.15,1.38,1.15.17.05.28.22.23.39-.04.15-.17.24-.31.24Z"/>
          <path class="cls-34" d="M118.76,217.78s5.93,3.58,11.68,5.83l5.74,2.26,8.62-29.93-30.77-15.92,4.73,37.75Z"/>
          <path class="cls-50" d="M108.42,312.59c-.07,0-.15-.03-.21-.08-.14-.12-.15-.32-.04-.46.06-.07,5.84-7.02,5.09-19.34-.75-12.42-8.52-35.26-8.6-35.49-.03-.09-.02-.18.02-.26.04-.08.12-.14.2-.16l10.34-2.63c.17-.04.35.06.39.23s-.06.35-.23.39l-10,2.55c.96,2.87,7.81,23.64,8.52,35.33.77,12.6-5.19,19.73-5.25,19.8-.06.07-.15.11-.25.11Z"/>
          <path class="cls-50" d="M126.14,338.36c-.15,0-.28-.1-.31-.25-.04-.17.07-.35.24-.39l29.04-6.97c.18-.04.35.07.39.24.04.17-.07.35-.24.39l-29.04,6.97s-.05,0-.08,0Z"/>
          <path class="cls-50" d="M76.43,276.46s-.06,0-.09,0c-2.06-.24-5.79-10.41-6.52-12.45-.05-.15,0-.31.14-.39.13-.08.3-.05.41.07.87.99,8.46,9.73,6.78,12.34-.23.36-.52.43-.72.43ZM71.05,265.49c1.77,4.67,4.28,10.2,5.36,10.33.03,0,.09.01.19-.14.94-1.46-2.54-6.55-5.55-10.19Z"/>
          <path class="cls-50" d="M47.67,276.46c-.11,0-.23-.06-.28-.17-.09-.16-.03-.35.13-.44l22.45-12.24c.16-.08.35-.03.44.13.09.16.03.35-.13.44l-22.45,12.24s-.1.04-.15.04Z"/>
          <path class="cls-24" d="M188.58,379.7l-52.13.73c-2.29.03-4.19-1.7-4.35-3.94l-.36-5.06,59.93.77c.3.55.55,1.08.79,1.6,1.25,2.76-.81,5.87-3.88,5.91Z"/>
          <path class="cls-29" d="M163.07,357.39c-.12,0-.23-.06-.29-.18-.08-.16-.02-.35.14-.43.09-.05,9.2-4.71,9.94-7.69.09-.35.04-.65-.14-.91-.19-.27-.43-.4-.77-.41-2.2-.06-6.89,5.13-8.65,7.31-.04.05-.08.09-.1.13-.11.14-.32.16-.45.05-.14-.11-.16-.31-.05-.45.01-.02.04-.05.07-.09,1.94-2.42,6.55-8.84,5.75-10.92-.13-.33-.4-.52-.85-.59-.61-.1-1.14.06-1.64.47-2.53,2.09-2.83,9.77-2.83,9.84,0,.18-.15.33-.33.31-.18,0-.32-.16-.31-.33.01-.33.31-8.05,3.07-10.32.64-.53,1.37-.73,2.15-.6.85.14,1.21.62,1.36,1,.58,1.5-.91,4.42-2.54,6.97,1.84-1.79,3.95-3.47,5.39-3.4.54.02.97.25,1.28.69.29.42.37.9.24,1.44-.81,3.26-9.89,7.91-10.28,8.11-.05.02-.1.04-.15.04Z"/>
          <path class="cls-15" d="M81.06,198.43s-16.02-7.11-28.59,5.78c-12.57,12.89-16.56,36.09-16.56,36.09l11.96,4.17,25.9-26.42,7.29-19.61Z"/>
          <path class="cls-15" d="M48.95,244.07s.94,6.56.55,8.24c-.39,1.68-3.49,3.93-3.49,3.93,0,0-4.79,4.9-6.52,4.72s-2.72-3.07-2.72-3.07c0,0-7.1-3.81-8.34-8.21s11.66-12.65,11.66-12.65l7.75,1.87,1.1,5.17Z"/>
          <path class="cls-25" d="M36.77,258.21c-.07,0-.15-.02-.21-.07-.14-.11-.16-.32-.04-.46l1.2-1.44c.11-.14.32-.16.45-.04.14.11.16.32.04.46l-1.2,1.44c-.06.08-.16.12-.25.12Z"/>
          <path class="cls-25" d="M46.01,256.56c-.05,0-.1-.01-.15-.04-.16-.08-.22-.28-.13-.44l3.11-5.78c.09-.16.28-.22.44-.13.16.08.22.28.13.44l-3.11,5.78c-.06.11-.17.17-.28.17Z"/>
          <path class="cls-34" d="M47.67,205.99s15.24-25.13,40.68-28.46c30.25-3.95,35.72,10.89,36.68,16.91,1.04,6.57-3.71,26.31-3.71,26.31l-3.03,21.78-49.66-10.48,5.48-15.52-26.44-10.54Z"/>
          <path class="cls-24" d="M109.61,158.91s9.49-7.58,4.04-10.62c-3.65-2.03-7.19,2.92-7.19,2.92,0,0-8.98.58-12.49,5.22-3.51,4.64,4.67,13.1,4.67,13.1l10.97-10.62Z"/>
          <path class="cls-15" d="M100.19,171.36l-.7,8.11s1.29,2.45,6.08,3.24c3.57.59,4.9-.11,4.9-.11l-.15-4.15-.15-4.04-8.55-2.61-1.43-.44Z"/>
          <path class="cls-25" d="M101.62,171.8c0,.22.06.49.17.8,1.5,4.2,6.46,5.5,8.52,5.85l-.15-4.04-8.55-2.61Z"/>
          <path class="cls-15" d="M113.6,156.09s3.45,10.52,1.26,16.03c-2.19,5.5-7.35,4.09-10.38,2.69-3.03-1.4-4.29-3.44-4.29-3.44,0,0-3.03.69-4.72-2.19-1.69-2.88-.17-5.84,1.58-6.38,1.75-.54,3.62.85,3.62.85l-1.26-3.08s8.09-14.24,14.2-4.47Z"/>
          <path class="cls-25" d="M112.33,167.67s-.05,0-.08,0c-.17-.04-.28-.22-.24-.39.58-2.38-.87-3.81-.93-3.87-.13-.12-.13-.33-.01-.46.12-.13.33-.14.46-.01.07.07,1.79,1.74,1.12,4.49-.04.15-.17.25-.31.25Z"/>
          <path d="M114.01,163.96c-.15,0-.29-.11-.32-.26l-.36-1.9c-.03-.18.08-.34.26-.38.17-.03.34.08.38.26l.36,1.9c.03.18-.08.34-.26.38-.02,0-.04,0-.06,0Z"/>
          <path d="M108.78,163.63c-.15,0-.29-.11-.32-.26l-.36-1.9c-.03-.18.08-.34.26-.38.17-.03.34.08.38.26l.36,1.9c.03.18-.08.34-.26.38-.02,0-.04,0-.06,0Z"/>
          <path class="cls-24" d="M114.27,158.45s-.75-1.7-2.81-1.89c-2.06-.19-3.38,1.14-3.38,1.14,0,0,.61,3.48-2.34,5.06-2.95,1.58-5.07.89-5.07.89l-1.97-.88-1.24-3.04,6.4-5.73,7.94-3.31,2.03,4,.44,3.76Z"/>
          <path class="cls-25" d="M110,170.72c-.17,0-2.17-.04-2.88-1.94-.06-.17.02-.35.19-.42.17-.06.35.02.42.19.56,1.5,2.18,1.52,2.28,1.52.18,0,.33.14.33.32,0,.18-.14.32-.32.33h0Z"/>
          <path class="cls-24" d="M106.46,151.22s.12-4.51-4.84-2.92c-4.96,1.59-5.1,7.74-5.1,7.74l9.94-4.81Z"/>
          <path class="cls-24" d="M114.56,159.94c-.06,0-1.61-.28-1.61-.28-.18-.03-.29-.2-.26-.37.03-.18.2-.3.37-.26l1.55.27c.18.03.29.2.26.37-.03.16-.16.27-.32.27Z"/>
          <path class="cls-24" d="M107.42,160.4c-.14,0-.26-.09-.31-.22-.06-.17.03-.35.2-.41l2.19-.73c.17-.06.35.04.41.2.06.17-.03.35-.2.41l-2.19.73s-.07.02-.1.02Z"/>
          <path class="cls-50" d="M73.6,243.28c-.14,0-.27-.1-.31-.24-.05-.17.06-.35.23-.39.06-.02,5.84-1.55,7.25-4.58.08-.16.27-.23.43-.16.16.07.23.27.16.43-1.53,3.31-7.42,4.87-7.67,4.94-.03,0-.05.01-.08.01Z"/>
          <path class="cls-44" d="M100.66,163.64s3.97-4.82,8.66-5.57c4.69-.75,4.94.38,4.94.38l-.44-3.76s-1.96-1.53-7.76.33c-6.06,1.94-8.61,7.69-8.61,7.69l3.2.94Z"/>
        </g>
      </g>
    </g>
  </g>
</svg>