<?xml version="1.0" encoding="UTF-8"?>
<svg id="_圖層_2" data-name="圖層 2" xmlns="http://www.w3.org/2000/svg" viewBox="0 0 257.13 167.36">
  <defs>
    <style>
      .cls-1 {
        stroke: #4b635f;
        stroke-linecap: round;
        stroke-linejoin: round;
        stroke-width: 1.3px;
      }

      .cls-1, .cls-2 {
        fill: none;
      }

      .cls-3 {
        fill: #dde8e6;
      }

      .cls-2 {
        stroke: #96b1ac;
        stroke-miterlimit: 10;
      }

      .cls-4 {
        fill: #96b1ac;
      }
    </style>
  </defs>
  <g id="OBJECTS">
    <g>
      <g>
        <circle class="cls-3" cx="41.42" cy="110.85" r="33.1" transform="translate(-39.27 24.29) rotate(-22.5)"/>
        <circle class="cls-2" cx="41.42" cy="110.85" r="27.97"/>
        <g>
          <g>
            <path class="cls-4" d="M42.49,87.04c0,.59-.48,1.07-1.07,1.07s-1.07-.48-1.07-1.07.48-1.07,1.07-1.07,1.07.48,1.07,1.07Z"/>
            <path class="cls-4" d="M42.49,134.65c0,.59-.48,1.07-1.07,1.07s-1.07-.48-1.07-1.07.48-1.07,1.07-1.07,1.07.48,1.07,1.07Z"/>
          </g>
          <g>
            <path class="cls-4" d="M65.23,111.91c-.59,0-1.07-.48-1.07-1.07s.48-1.07,1.07-1.07,1.07.48,1.07,1.07-.48,1.07-1.07,1.07Z"/>
            <path class="cls-4" d="M17.62,111.91c-.59,0-1.07-.48-1.07-1.07s.48-1.07,1.07-1.07,1.07.48,1.07,1.07-.48,1.07-1.07,1.07Z"/>
          </g>
          <g>
            <path class="cls-4" d="M30.05,91.77c-.21,0-.42-.11-.53-.31l-1.07-1.85c-.17-.29-.07-.67.22-.84.3-.17.67-.07.84.22l1.07,1.85c.17.29.07.67-.22.84-.1.06-.2.08-.31.08Z"/>
            <path class="cls-4" d="M53.86,133c-.21,0-.42-.11-.53-.31l-1.07-1.85c-.17-.29-.07-.67.22-.84.3-.17.67-.07.84.22l1.07,1.85c.17.29.07.67-.22.84-.1.06-.2.08-.31.08Z"/>
          </g>
          <g>
            <path class="cls-4" d="M21.73,100.09c-.1,0-.21-.03-.31-.08l-1.85-1.07c-.29-.17-.39-.55-.22-.84.17-.29.55-.39.84-.22l1.85,1.07c.29.17.39.55.22.84-.11.2-.32.31-.53.31Z"/>
            <path class="cls-4" d="M62.96,123.9c-.1,0-.21-.03-.31-.08l-1.85-1.07c-.29-.17-.39-.55-.22-.84.17-.29.54-.4.84-.22l1.85,1.07c.29.17.39.55.22.84-.11.2-.32.31-.53.31Z"/>
          </g>
          <g>
            <path class="cls-4" d="M61.11,100.09c-.21,0-.42-.11-.53-.31-.17-.29-.07-.67.22-.84l1.85-1.07c.3-.17.67-.07.84.22.17.29.07.67-.22.84l-1.85,1.07c-.1.06-.2.08-.31.08Z"/>
            <path class="cls-4" d="M19.88,123.9c-.21,0-.42-.11-.53-.31-.17-.29-.07-.67.22-.84l1.85-1.07c.29-.17.67-.07.84.22.17.29.07.67-.22.84l-1.85,1.07c-.1.06-.2.08-.31.08Z"/>
          </g>
          <g>
            <path class="cls-4" d="M52.79,91.77c-.1,0-.21-.03-.31-.08-.29-.17-.39-.55-.22-.84l1.07-1.85c.17-.29.54-.4.84-.22.29.17.39.55.22.84l-1.07,1.85c-.11.2-.32.31-.53.31Z"/>
            <path class="cls-4" d="M28.99,133c-.1,0-.21-.03-.31-.08-.29-.17-.39-.55-.22-.84l1.07-1.85c.17-.29.54-.4.84-.22.29.17.39.55.22.84l-1.07,1.85c-.11.2-.32.31-.53.31Z"/>
          </g>
        </g>
        <g>
          <path class="cls-4" d="M40.39,109.3l14.54-9.02-12.46,11.73c-.69.65-1.78.62-2.43-.07s-.62-1.78.07-2.43c.08-.08.18-.15.27-.21Z"/>
          <path class="cls-4" d="M40.07,111.52l-10.62-21.6,13.57,19.88c.53.78.33,1.85-.45,2.38-.78.53-1.85.33-2.38-.45-.04-.07-.09-.14-.12-.21Z"/>
        </g>
      </g>
      <g>
        <path class="cls-1" d="M12.56,145.79c2,2.62-.97,5.58-3.59,3.59-2-2.62.97-5.58,3.59-3.59Z"/>
        <path class="cls-1" d="M236.51,3.1c0,1.35-1.1,2.45-2.45,2.45s-2.45-1.1-2.45-2.45,1.1-2.45,2.45-2.45,2.45,1.1,2.45,2.45Z"/>
        <g>
          <line class="cls-1" x1="253.96" y1="26.33" x2="253.96" y2="31.37"/>
          <line class="cls-1" x1="256.48" y1="28.85" x2="251.44" y2="28.85"/>
        </g>
        <g>
          <line class="cls-1" x1="3.17" y1="161.67" x2="3.17" y2="166.71"/>
          <line class="cls-1" x1="5.68" y1="164.19" x2=".65" y2="164.19"/>
        </g>
      </g>
    </g>
  </g>
</svg>