<?xml version="1.0" encoding="UTF-8"?>
<svg id="_圖層_2" data-name="圖層 2" xmlns="http://www.w3.org/2000/svg" viewBox="0 0 187.32 141.71">
  <defs>
    <style>
      .cls-1 {
        fill: #6cab9f;
      }

      .cls-2 {
        stroke: #4b635f;
        stroke-linecap: round;
        stroke-linejoin: round;
        stroke-width: 1.3px;
      }

      .cls-2, .cls-3 {
        fill: none;
      }

      .cls-4 {
        fill: #abd1cb;
      }

      .cls-5 {
        fill: #dde8e6;
      }

      .cls-3 {
        stroke: #96b1ac;
        stroke-miterlimit: 10;
      }

      .cls-6 {
        fill: #96b1ac;
      }
    </style>
  </defs>
  <g id="OBJECTS">
    <g>
      <path class="cls-4" d="M187.32,81.69c.03-1.19-.08-2.41-.34-3.63-.26-1.22-.67-2.37-1.18-3.45l-3.1,1.16c-.5-.99-1.13-1.89-1.86-2.69l2.18-2.5c-1.69-1.76-3.78-3.11-6.08-3.92l-1.38,3.02c-1.03-.34-2.11-.54-3.21-.59l-.22-3.31c-1.19-.03-2.41.08-3.63.34-1.22.26-2.37.67-3.45,1.18l1.16,3.1c-.99.5-1.89,1.13-2.69,1.86l-2.5-2.18c-1.76,1.69-3.11,3.78-3.92,6.08l3.02,1.38c-.33,1.03-.54,2.11-.59,3.21l-3.31.22c-.03,1.19.08,2.41.34,3.63.26,1.22.67,2.37,1.18,3.45l3.1-1.16c.5.99,1.13,1.89,1.86,2.69l-2.18,2.5c1.69,1.76,3.78,3.11,6.08,3.92l1.38-3.02c1.03.34,2.11.54,3.21.59l.22,3.31c1.19.03,2.41-.08,3.63-.34,1.22-.26,2.37-.67,3.45-1.18l-1.16-3.1c.99-.5,1.89-1.13,2.69-1.86l2.5,2.18c1.76-1.69,3.11-3.78,3.92-6.08l-3.02-1.38c.34-1.03.54-2.11.59-3.21l3.31-.22ZM173.35,88.66c-4.05.87-8.03-1.7-8.91-5.75-.87-4.05,1.7-8.03,5.75-8.91,4.05-.87,8.03,1.7,8.91,5.75.87,4.05-1.7,8.03-5.75,8.91Z"/>
      <path class="cls-1" d="M82.84,26.07c.04-1.96-.13-3.95-.57-5.95-.43-2-1.09-3.89-1.94-5.65l-5.09,1.9c-.82-1.62-1.86-3.09-3.05-4.4l3.58-4.09c-2.77-2.89-6.19-5.1-9.97-6.43l-2.26,4.95c-1.69-.55-3.45-.88-5.27-.96L57.92,0c-1.96-.04-3.95.13-5.95.57-2,.43-3.89,1.09-5.65,1.94l1.9,5.09c-1.62.82-3.09,1.86-4.4,3.05l-4.09-3.58c-2.89,2.77-5.1,6.19-6.43,9.97l4.95,2.26c-.55,1.69-.88,3.46-.96,5.27l-5.42.36c-.04,1.96.13,3.95.57,5.95.43,2,1.09,3.89,1.94,5.65l5.09-1.9c.82,1.62,1.86,3.09,3.05,4.4l-3.58,4.1c2.77,2.89,6.19,5.1,9.97,6.43l2.26-4.95c1.69.55,3.46.88,5.27.96l.36,5.42c1.96.04,3.95-.13,5.95-.57,2-.43,3.89-1.09,5.65-1.94l-1.9-5.09c1.62-.82,3.09-1.86,4.4-3.05l4.1,3.58c2.89-2.77,5.1-6.19,6.43-9.97l-4.95-2.26c.55-1.69.88-3.45.96-5.27l5.42-.36ZM59.94,37.51c-6.63,1.43-13.17-2.79-14.6-9.42-1.43-6.63,2.79-13.17,9.42-14.6,6.63-1.43,13.17,2.79,14.6,9.42,1.43,6.63-2.79,13.17-9.42,14.6ZM58.83,32.34c-3.78.82-7.51-1.59-8.32-5.37-.82-3.78,1.59-7.51,5.37-8.32,3.78-.82,7.51,1.59,8.32,5.37.82,3.78-1.59,7.51-5.37,8.32Z"/>
      <g>
        <circle class="cls-5" cx="104.29" cy="82.5" r="40.92"/>
        <circle class="cls-3" cx="104.29" cy="82.5" r="34.58" transform="translate(-17.32 28.71) rotate(-14.49)"/>
        <g>
          <g>
            <path class="cls-6" d="M105.61,53.07c0,.73-.59,1.32-1.32,1.32s-1.32-.59-1.32-1.32.59-1.32,1.32-1.32,1.32.59,1.32,1.32Z"/>
            <path class="cls-6" d="M105.61,111.93c0,.73-.59,1.32-1.32,1.32s-1.32-.59-1.32-1.32.59-1.32,1.32-1.32,1.32.59,1.32,1.32Z"/>
          </g>
          <g>
            <path class="cls-6" d="M133.72,83.82c-.73,0-1.32-.59-1.32-1.32s.59-1.32,1.32-1.32,1.32.59,1.32,1.32-.59,1.32-1.32,1.32Z"/>
            <path class="cls-6" d="M74.86,83.82c-.73,0-1.32-.59-1.32-1.32s.59-1.32,1.32-1.32,1.32.59,1.32,1.32-.59,1.32-1.32,1.32Z"/>
          </g>
          <g>
            <path class="cls-6" d="M90.24,58.91c-.26,0-.52-.14-.66-.38l-1.32-2.28c-.21-.36-.09-.83.28-1.04.36-.21.83-.09,1.04.28l1.32,2.28c.21.36.08.83-.28,1.04-.12.07-.25.1-.38.1Z"/>
            <path class="cls-6" d="M119.67,109.89c-.26,0-.52-.14-.66-.38l-1.32-2.28c-.21-.36-.09-.83.28-1.04.36-.21.83-.09,1.04.28l1.32,2.28c.21.36.09.83-.28,1.04-.12.07-.25.1-.38.1Z"/>
          </g>
          <g>
            <path class="cls-6" d="M79.95,69.2c-.13,0-.26-.03-.38-.1l-2.28-1.32c-.36-.21-.49-.67-.28-1.04s.68-.49,1.04-.28l2.28,1.32c.36.21.49.67.28,1.04-.14.24-.4.38-.66.38Z"/>
            <path class="cls-6" d="M130.92,98.63c-.13,0-.26-.03-.38-.1l-2.28-1.32c-.36-.21-.49-.67-.28-1.04.21-.36.67-.49,1.04-.28l2.28,1.32c.36.21.49.67.28,1.04-.14.24-.4.38-.66.38Z"/>
          </g>
          <g>
            <path class="cls-6" d="M128.64,69.2c-.26,0-.52-.14-.66-.38-.21-.36-.09-.83.28-1.04l2.28-1.32c.36-.21.83-.09,1.04.28.21.36.08.83-.28,1.04l-2.28,1.32c-.12.07-.25.1-.38.1Z"/>
            <path class="cls-6" d="M77.66,98.63c-.26,0-.52-.14-.66-.38-.21-.36-.09-.83.28-1.04l2.28-1.32c.36-.21.83-.09,1.04.28.21.36.09.83-.28,1.04l-2.28,1.32c-.12.07-.25.1-.38.1Z"/>
          </g>
          <g>
            <path class="cls-6" d="M118.35,58.91c-.13,0-.26-.03-.38-.1-.36-.21-.49-.67-.28-1.04l1.32-2.28c.21-.36.67-.49,1.04-.28.36.21.49.67.28,1.04l-1.32,2.28c-.14.24-.4.38-.66.38Z"/>
            <path class="cls-6" d="M88.92,109.89c-.13,0-.26-.03-.38-.1-.36-.21-.49-.67-.28-1.04l1.32-2.28c.21-.36.67-.49,1.04-.28.36.21.49.67.28,1.04l-1.32,2.28c-.14.24-.4.38-.66.38Z"/>
          </g>
        </g>
        <g>
          <path class="cls-6" d="M103.14,83.85l-17.08-12.49,19.22,8.84c1.07.49,1.53,1.75,1.04,2.82s-1.75,1.53-2.82,1.04c-.13-.06-.26-.14-.37-.22Z"/>
          <path class="cls-6" d="M106,83.6l-19.84,22.18,16.49-24.77c.65-.98,1.97-1.24,2.94-.59.98.65,1.24,1.97.59,2.94-.05.08-.12.17-.18.24Z"/>
        </g>
      </g>
      <g>
        <path class="cls-2" d="M5.55,29.57c0,1.35-1.1,2.45-2.45,2.45s-2.45-1.1-2.45-2.45,1.1-2.45,2.45-2.45,2.45,1.1,2.45,2.45Z"/>
        <path class="cls-2" d="M131.66,19.48c0,1.35-1.1,2.45-2.45,2.45s-2.45-1.1-2.45-2.45,1.1-2.45,2.45-2.45,2.45,1.1,2.45,2.45Z"/>
        <path class="cls-2" d="M160.08,124.28c0,1.35-1.1,2.45-2.45,2.45s-2.45-1.1-2.45-2.45,1.1-2.45,2.45-2.45,2.45,1.1,2.45,2.45Z"/>
        <g>
          <line class="cls-2" x1="30.65" y1="75.5" x2="30.65" y2="80.54"/>
          <line class="cls-2" x1="33.16" y1="78.02" x2="28.13" y2="78.02"/>
        </g>
        <g>
          <line class="cls-2" x1="150.06" y1="33.26" x2="150.06" y2="38.29"/>
          <line class="cls-2" x1="152.58" y1="35.77" x2="147.55" y2="35.77"/>
        </g>
        <g>
          <line class="cls-2" x1="78.69" y1="136.02" x2="78.69" y2="141.06"/>
          <line class="cls-2" x1="81.21" y1="138.54" x2="76.18" y2="138.54"/>
        </g>
      </g>
    </g>
  </g>
</svg>