<?xml version="1.0" encoding="UTF-8"?>
<svg id="_圖層_2" data-name="圖層 2" xmlns="http://www.w3.org/2000/svg" viewBox="0 0 567.96 209.89">
  <defs>
    <style>
      .cls-1 {
        fill: #dde8e6;
      }

      .cls-2 {
        stroke: #96b1ac;
        stroke-miterlimit: 10;
      }

      .cls-2, .cls-3 {
        fill: none;
      }

      .cls-4 {
        fill: #96b1ac;
      }

      .cls-3 {
        stroke: #dde8e6;
        stroke-linecap: round;
        stroke-linejoin: round;
        stroke-width: 1.3px;
      }
    </style>
  </defs>
  <g id="OBJECTS">
    <g>
      <g>
        <circle class="cls-1" cx="53.11" cy="117.6" r="33.1" transform="translate(-40.96 29.27) rotate(-22.5)"/>
        <circle class="cls-2" cx="53.11" cy="117.6" r="27.97"/>
        <g>
          <g>
            <path class="cls-4" d="M54.17,93.79c0,.59-.48,1.07-1.07,1.07s-1.07-.48-1.07-1.07.48-1.07,1.07-1.07,1.07.48,1.07,1.07Z"/>
            <path class="cls-4" d="M54.17,141.4c0,.59-.48,1.07-1.07,1.07s-1.07-.48-1.07-1.07.48-1.07,1.07-1.07,1.07.48,1.07,1.07Z"/>
          </g>
          <g>
            <path class="cls-4" d="M76.91,118.66c-.59,0-1.07-.48-1.07-1.07s.48-1.07,1.07-1.07,1.07.48,1.07,1.07-.48,1.07-1.07,1.07Z"/>
            <path class="cls-4" d="M29.3,118.66c-.59,0-1.07-.48-1.07-1.07s.48-1.07,1.07-1.07,1.07.48,1.07,1.07-.48,1.07-1.07,1.07Z"/>
          </g>
          <g>
            <path class="cls-4" d="M41.74,98.52c-.21,0-.42-.11-.53-.31l-1.07-1.85c-.17-.29-.07-.67.22-.84.3-.17.67-.07.84.22l1.07,1.85c.17.29.07.67-.22.84-.1.06-.2.08-.31.08Z"/>
            <path class="cls-4" d="M65.54,139.75c-.21,0-.42-.11-.53-.31l-1.07-1.85c-.17-.29-.07-.67.22-.84.3-.17.67-.07.84.22l1.07,1.85c.17.29.07.67-.22.84-.1.06-.2.08-.31.08Z"/>
          </g>
          <g>
            <path class="cls-4" d="M33.41,106.84c-.1,0-.21-.03-.31-.08l-1.85-1.07c-.29-.17-.39-.55-.22-.84.17-.29.55-.39.84-.22l1.85,1.07c.29.17.39.55.22.84-.11.2-.32.31-.53.31Z"/>
            <path class="cls-4" d="M74.64,130.64c-.1,0-.21-.03-.31-.08l-1.85-1.07c-.29-.17-.39-.55-.22-.84.17-.29.54-.4.84-.22l1.85,1.07c.29.17.39.55.22.84-.11.2-.32.31-.53.31Z"/>
          </g>
          <g>
            <path class="cls-4" d="M72.8,106.84c-.21,0-.42-.11-.53-.31-.17-.29-.07-.67.22-.84l1.85-1.07c.3-.17.67-.07.84.22.17.29.07.67-.22.84l-1.85,1.07c-.1.06-.2.08-.31.08Z"/>
            <path class="cls-4" d="M31.57,130.64c-.21,0-.42-.11-.53-.31-.17-.29-.07-.67.22-.84l1.85-1.07c.29-.17.67-.07.84.22.17.29.07.67-.22.84l-1.85,1.07c-.1.06-.2.08-.31.08Z"/>
          </g>
          <g>
            <path class="cls-4" d="M64.47,98.52c-.1,0-.21-.03-.31-.08-.29-.17-.39-.55-.22-.84l1.07-1.85c.17-.29.54-.4.84-.22.29.17.39.55.22.84l-1.07,1.85c-.11.2-.32.31-.53.31Z"/>
            <path class="cls-4" d="M40.67,139.75c-.1,0-.21-.03-.31-.08-.29-.17-.39-.55-.22-.84l1.07-1.85c.17-.29.54-.4.84-.22.29.17.39.55.22.84l-1.07,1.85c-.11.2-.32.31-.53.31Z"/>
          </g>
        </g>
        <g>
          <path class="cls-4" d="M52.07,116.05l14.54-9.02-12.46,11.73c-.69.65-1.78.62-2.43-.07s-.62-1.78.07-2.43c.08-.08.18-.15.27-.21Z"/>
          <path class="cls-4" d="M51.75,118.27l-10.62-21.6,13.57,19.88c.53.78.33,1.85-.45,2.38-.78.53-1.85.33-2.38-.45-.04-.07-.09-.14-.12-.21Z"/>
        </g>
      </g>
      <path class="cls-1" d="M204.07,59.56l-13.07-.77c-.24-4.37-1.07-8.63-2.43-12.68l11.88-5.54c-3.29-9.08-8.68-17.28-15.7-23.9l-9.8,8.71c-3.18-2.85-6.76-5.31-10.67-7.26l4.48-12.3c-4.27-2-8.84-3.55-13.66-4.55-4.82-1-9.63-1.38-14.34-1.24l-.77,13.07c-4.37.24-8.63,1.07-12.68,2.43l-5.54-11.88c-9.08,3.29-17.28,8.68-23.9,15.7l8.71,9.8c-2.85,3.18-5.31,6.76-7.26,10.67l-12.3-4.48c-2,4.27-3.55,8.84-4.55,13.66-1,4.82-1.38,9.63-1.24,14.34l13.07.77c.24,4.37,1.07,8.63,2.43,12.68l-11.88,5.54c3.29,9.08,8.68,17.28,15.7,23.9l9.8-8.71c3.18,2.85,6.76,5.31,10.67,7.26l-4.48,12.3c4.27,2,8.84,3.55,13.66,4.55,4.82,1,9.63,1.38,14.34,1.24l.77-13.07c4.37-.24,8.63-1.07,12.68-2.43l5.54,11.88c9.08-3.29,17.28-8.68,23.9-15.7l-8.71-9.8c2.85-3.18,5.31-6.76,7.26-10.67l12.3,4.48c2-4.27,3.55-8.84,4.55-13.66,1-4.82,1.38-9.63,1.24-14.34ZM171.65,67.45c-3.32,16.02-18.99,26.31-35,23-16.02-3.31-26.31-18.99-23-35,3.32-16.02,18.99-26.31,35-23,16.02,3.31,26.31,18.99,23,35Z"/>
      <path class="cls-1" d="M567.96,127.92c.03-1.19-.08-2.41-.34-3.63-.26-1.22-.67-2.37-1.18-3.45l-3.1,1.16c-.5-.99-1.13-1.89-1.86-2.69l2.18-2.5c-1.69-1.76-3.78-3.11-6.08-3.92l-1.38,3.02c-1.03-.34-2.11-.54-3.21-.59l-.22-3.31c-1.19-.03-2.41.08-3.63.34-1.22.26-2.37.67-3.45,1.18l1.16,3.1c-.99.5-1.89,1.13-2.69,1.86l-2.5-2.18c-1.76,1.69-3.11,3.78-3.92,6.08l3.02,1.38c-.33,1.03-.54,2.11-.59,3.21l-3.31.22c-.03,1.19.08,2.41.34,3.63.26,1.22.67,2.37,1.18,3.45l3.1-1.16c.5.99,1.13,1.89,1.86,2.69l-2.18,2.5c1.69,1.76,3.78,3.11,6.08,3.92l1.38-3.02c1.03.34,2.11.54,3.21.59l.22,3.31c1.19.03,2.41-.08,3.63-.34,1.22-.26,2.37-.67,3.45-1.18l-1.16-3.1c.99-.5,1.89-1.13,2.69-1.86l2.5,2.18c1.76-1.69,3.11-3.78,3.92-6.08l-3.02-1.38c.34-1.03.54-2.11.59-3.21l3.31-.22ZM553.99,134.9c-4.05.87-8.03-1.7-8.91-5.75-.87-4.05,1.7-8.03,5.75-8.91,4.05-.87,8.03,1.7,8.91,5.75.87,4.05-1.7,8.03-5.75,8.91Z"/>
      <path class="cls-1" d="M463.48,72.31c.04-1.96-.13-3.95-.57-5.95-.43-2-1.09-3.89-1.94-5.65l-5.09,1.9c-.82-1.62-1.86-3.09-3.05-4.4l3.58-4.09c-2.77-2.89-6.19-5.1-9.97-6.43l-2.26,4.95c-1.69-.55-3.45-.88-5.27-.96l-.36-5.42c-1.96-.04-3.95.13-5.95.57-2,.43-3.89,1.09-5.65,1.94l1.9,5.09c-1.62.82-3.09,1.86-4.4,3.05l-4.09-3.58c-2.89,2.77-5.1,6.19-6.43,9.97l4.95,2.26c-.55,1.69-.88,3.46-.96,5.27l-5.42.36c-.04,1.96.13,3.95.57,5.95.43,2,1.09,3.89,1.94,5.65l5.09-1.9c.82,1.62,1.86,3.09,3.05,4.4l-3.58,4.1c2.77,2.89,6.19,5.1,9.97,6.43l2.26-4.95c1.69.55,3.46.88,5.27.96l.36,5.42c1.96.04,3.95-.13,5.95-.57,2-.43,3.89-1.09,5.65-1.94l-1.9-5.09c1.62-.82,3.09-1.86,4.4-3.05l4.1,3.58c2.89-2.77,5.1-6.19,6.43-9.97l-4.95-2.26c.55-1.69.88-3.45.96-5.27l5.42-.36ZM440.58,83.75c-6.63,1.43-13.17-2.79-14.6-9.42-1.43-6.63,2.79-13.17,9.42-14.6,6.63-1.43,13.17,2.79,14.6,9.42,1.43,6.63-2.79,13.17-9.42,14.6ZM439.46,78.58c-3.78.82-7.51-1.59-8.32-5.37-.82-3.78,1.59-7.51,5.37-8.32,3.78-.82,7.51,1.59,8.32,5.37.82,3.78-1.59,7.51-5.37,8.32Z"/>
      <g>
        <circle class="cls-1" cx="484.93" cy="128.74" r="40.92"/>
        <circle class="cls-2" cx="484.93" cy="128.74" r="34.58" transform="translate(-16.79 125.41) rotate(-14.49)"/>
        <g>
          <g>
            <path class="cls-4" d="M486.25,99.31c0,.73-.59,1.32-1.32,1.32s-1.32-.59-1.32-1.32.59-1.32,1.32-1.32,1.32.59,1.32,1.32Z"/>
            <path class="cls-4" d="M486.25,158.17c0,.73-.59,1.32-1.32,1.32s-1.32-.59-1.32-1.32.59-1.32,1.32-1.32,1.32.59,1.32,1.32Z"/>
          </g>
          <g>
            <path class="cls-4" d="M514.36,130.06c-.73,0-1.32-.59-1.32-1.32s.59-1.32,1.32-1.32,1.32.59,1.32,1.32-.59,1.32-1.32,1.32Z"/>
            <path class="cls-4" d="M455.5,130.06c-.73,0-1.32-.59-1.32-1.32s.59-1.32,1.32-1.32,1.32.59,1.32,1.32-.59,1.32-1.32,1.32Z"/>
          </g>
          <g>
            <path class="cls-4" d="M470.87,105.15c-.26,0-.52-.14-.66-.38l-1.32-2.28c-.21-.36-.09-.83.28-1.04.36-.21.83-.09,1.04.28l1.32,2.28c.21.36.08.83-.28,1.04-.12.07-.25.1-.38.1Z"/>
            <path class="cls-4" d="M500.3,156.13c-.26,0-.52-.14-.66-.38l-1.32-2.28c-.21-.36-.09-.83.28-1.04.36-.21.83-.09,1.04.28l1.32,2.28c.21.36.09.83-.28,1.04-.12.07-.25.1-.38.1Z"/>
          </g>
          <g>
            <path class="cls-4" d="M460.58,115.44c-.13,0-.26-.03-.38-.1l-2.28-1.32c-.36-.21-.49-.67-.28-1.04s.68-.49,1.04-.28l2.28,1.32c.36.21.49.67.28,1.04-.14.24-.4.38-.66.38Z"/>
            <path class="cls-4" d="M511.56,144.87c-.13,0-.26-.03-.38-.1l-2.28-1.32c-.36-.21-.49-.67-.28-1.04.21-.36.67-.49,1.04-.28l2.28,1.32c.36.21.49.67.28,1.04-.14.24-.4.38-.66.38Z"/>
          </g>
          <g>
            <path class="cls-4" d="M509.28,115.44c-.26,0-.52-.14-.66-.38-.21-.36-.09-.83.28-1.04l2.28-1.32c.36-.21.83-.09,1.04.28.21.36.08.83-.28,1.04l-2.28,1.32c-.12.07-.25.1-.38.1Z"/>
            <path class="cls-4" d="M458.3,144.87c-.26,0-.52-.14-.66-.38-.21-.36-.09-.83.28-1.04l2.28-1.32c.36-.21.83-.09,1.04.28.21.36.09.83-.28,1.04l-2.28,1.32c-.12.07-.25.1-.38.1Z"/>
          </g>
          <g>
            <path class="cls-4" d="M498.98,105.15c-.13,0-.26-.03-.38-.1-.36-.21-.49-.67-.28-1.04l1.32-2.28c.21-.36.67-.49,1.04-.28.36.21.49.67.28,1.04l-1.32,2.28c-.14.24-.4.38-.66.38Z"/>
            <path class="cls-4" d="M469.55,156.13c-.13,0-.26-.03-.38-.1-.36-.21-.49-.67-.28-1.04l1.32-2.28c.21-.36.67-.49,1.04-.28.36.21.49.67.28,1.04l-1.32,2.28c-.14.24-.4.38-.66.38Z"/>
          </g>
        </g>
        <g>
          <path class="cls-4" d="M483.78,130.08l-17.08-12.49,19.22,8.84c1.07.49,1.53,1.75,1.04,2.82s-1.75,1.53-2.82,1.04c-.13-.06-.26-.14-.37-.22Z"/>
          <path class="cls-4" d="M486.64,129.83l-19.84,22.18,16.49-24.77c.65-.98,1.97-1.24,2.94-.59.98.65,1.24,1.97.59,2.94-.05.08-.12.17-.18.24Z"/>
        </g>
      </g>
      <g>
        <path class="cls-3" d="M52.93,167.14c0,1.35-1.1,2.45-2.45,2.45s-2.45-1.1-2.45-2.45,1.1-2.45,2.45-2.45,2.45,1.1,2.45,2.45Z"/>
        <path class="cls-3" d="M232.72,91.95c0,1.35-1.1,2.45-2.45,2.45s-2.45-1.1-2.45-2.45,1.1-2.45,2.45-2.45,2.45,1.1,2.45,2.45Z"/>
        <path class="cls-3" d="M386.3,73.71c0,1.35-1.1,2.45-2.45,2.45s-2.45-1.1-2.45-2.45,1.1-2.45,2.45-2.45,2.45,1.1,2.45,2.45Z"/>
        <path class="cls-3" d="M512.41,63.63c0,1.35-1.1,2.45-2.45,2.45s-2.45-1.1-2.45-2.45,1.1-2.45,2.45-2.45,2.45,1.1,2.45,2.45Z"/>
        <path class="cls-3" d="M540.83,168.43c0,1.35-1.1,2.45-2.45,2.45s-2.45-1.1-2.45-2.45,1.1-2.45,2.45-2.45,2.45,1.1,2.45,2.45Z"/>
        <g>
          <line class="cls-3" x1="252.62" y1="114.59" x2="252.62" y2="119.62"/>
          <line class="cls-3" x1="255.14" y1="117.1" x2="250.11" y2="117.1"/>
        </g>
        <g>
          <line class="cls-3" x1="411.39" y1="119.65" x2="411.39" y2="124.68"/>
          <line class="cls-3" x1="413.91" y1="122.17" x2="408.88" y2="122.17"/>
        </g>
        <g>
          <line class="cls-3" x1="530.81" y1="77.4" x2="530.81" y2="82.44"/>
          <line class="cls-3" x1="533.33" y1="79.92" x2="528.3" y2="79.92"/>
        </g>
        <g>
          <line class="cls-3" x1="459.44" y1="180.17" x2="459.44" y2="185.21"/>
          <line class="cls-3" x1="461.96" y1="182.69" x2="456.92" y2="182.69"/>
        </g>
        <g>
          <line class="cls-3" x1="142.03" y1="56.42" x2="142.03" y2="61.45"/>
          <line class="cls-3" x1="144.54" y1="58.93" x2="139.51" y2="58.93"/>
        </g>
        <g>
          <line class="cls-3" x1="3.17" y1="204.2" x2="3.17" y2="209.24"/>
          <line class="cls-3" x1="5.68" y1="206.72" x2=".65" y2="206.72"/>
        </g>
      </g>
    </g>
  </g>
</svg>