<?xml version="1.0" encoding="UTF-8"?>
<svg id="_圖層_2" data-name="圖層 2" xmlns="http://www.w3.org/2000/svg" viewBox="0 0 122.9 122.9">
  <defs>
    <style>
      .cls-1 {
        fill: #abd1cb;
      }
    </style>
  </defs>
  <g id="OBJECTS">
    <path class="cls-1" d="M122.87,59.56l-13.07-.77c-.24-4.37-1.07-8.63-2.43-12.68l11.88-5.54c-3.29-9.08-8.68-17.28-15.7-23.9l-9.8,8.71c-3.18-2.85-6.76-5.31-10.67-7.26l4.48-12.3c-4.27-2-8.84-3.55-13.66-4.55C69.08.27,64.28-.11,59.56.03l-.77,13.07c-4.37.24-8.63,1.07-12.68,2.43l-5.54-11.88c-9.08,3.29-17.28,8.68-23.9,15.7l8.71,9.8c-2.85,3.18-5.31,6.76-7.26,10.67l-12.3-4.48c-2,4.27-3.55,8.84-4.55,13.66C.27,53.82-.11,58.62.03,63.34l13.07.77c.24,4.37,1.07,8.63,2.43,12.68l-11.88,5.54c3.29,9.08,8.68,17.28,15.7,23.9l9.8-8.71c3.18,2.85,6.76,5.31,10.67,7.26l-4.48,12.3c4.27,2,8.84,3.55,13.66,4.55,4.82,1,9.63,1.38,14.34,1.24l.77-13.07c4.37-.24,8.63-1.07,12.68-2.43l5.54,11.88c9.08-3.29,17.28-8.68,23.9-15.7l-8.71-9.8c2.85-3.18,5.31-6.76,7.26-10.67l12.3,4.48c2-4.27,3.55-8.84,4.55-13.66,1-4.82,1.38-9.63,1.24-14.34ZM90.45,67.45c-3.32,16.02-18.99,26.31-35,23-16.02-3.31-26.31-18.99-23-35,3.32-16.02,18.99-26.31,35-23,16.02,3.31,26.31,18.99,23,35Z"/>
  </g>
</svg>